<svg width="1440" height="1440" viewBox="0 0 1440 1440" fill="none" xmlns="http://www.w3.org/2000/svg">
<rect width="1440" height="1440" fill="#BF0628"/>
<path d="M375.72 800C371.586 800 367.653 798.867 363.92 796.6C360.186 794.2 357.386 790.6 355.52 785.8C354.853 784.067 354.386 782.267 354.12 780.4C353.853 778.4 353.72 776.467 353.72 774.6C353.72 772.733 354.053 771.8 354.72 771.8C355.52 771.8 355.92 772.333 355.92 773.4C355.92 779.667 357.453 784.4 360.52 787.6C363.72 790.8 367.653 792.4 372.32 792.4C376.986 792.4 381.453 791.067 385.72 788.4C390.12 785.733 394.186 782.333 397.92 778.2C404.053 771.533 409.253 764.8 413.52 758C417.786 751.067 421.653 744 425.12 736.8C428.72 729.467 432.32 721.867 435.92 714C438.186 709.2 440.986 705 444.32 701.4C447.786 697.8 451.92 695.333 456.72 694L456.92 693.8H445.92C441.253 693.8 436.32 694 431.12 694.4C425.92 694.8 421.186 695.667 416.92 697C412.786 698.333 409.786 700.333 407.92 703C406.72 704.733 406.12 706.733 406.12 709C406.12 711.267 406.72 713.467 407.92 715.6C409.12 717.733 410.653 719.267 412.52 720.2C412.786 720.467 412.92 720.667 412.92 720.8C412.92 721.067 412.586 721.4 411.92 721.8C411.386 722.067 410.786 722.133 410.12 722C409.053 721.333 407.72 720.267 406.12 718.8C404.52 717.2 403.053 715.533 401.72 713.8C400.52 712.067 399.72 710.6 399.32 709.4C398.786 707.8 398.52 706.2 398.52 704.6C398.52 701.4 399.653 698.8 401.92 696.8C404.32 694.8 407.386 693.267 411.12 692.2C414.853 691.133 418.853 690.4 423.12 690C427.52 689.467 431.72 689.2 435.72 689.2C439.853 689.067 443.386 689 446.32 689H467.92C468.186 689 468.32 689.067 468.32 689.2C468.32 689.6 467.853 690.2 466.92 691C466.12 691.667 465.586 692 465.32 692C461.986 692.667 459.52 694.467 457.92 697.4C456.32 700.2 455.586 704.733 455.72 711C455.72 711 455.72 712.467 455.72 715.4C455.853 718.333 455.986 722.133 456.12 726.8C456.253 731.467 456.386 736.467 456.52 741.8C456.653 747.133 456.786 752.267 456.92 757.2C457.053 762.133 457.186 766.267 457.32 769.6V770.8L526.72 697.6C531.12 692.933 535.453 689 539.72 685.8C544.12 682.467 548.653 681 553.32 681.4C553.453 681.4 553.52 681.467 553.52 681.6C553.653 681.6 553.72 681.6 553.72 681.6C553.72 682 553.453 682.467 552.92 683C552.386 683.533 551.786 683.867 551.12 684C547.653 683.867 544.52 685.2 541.72 688C538.92 690.8 536.32 694.133 533.92 698C532.72 700 530.92 703.2 528.52 707.6C526.12 711.867 523.386 716.933 520.32 722.8C517.386 728.667 514.386 734.867 511.32 741.4C508.253 747.933 505.386 754.333 502.72 760.6C500.186 766.867 498.12 772.6 496.52 777.8C494.92 782.867 494.12 787 494.12 790.2C494.12 793.933 495.386 795.8 497.92 795.8C498.986 795.8 500.12 795.533 501.32 795C503.053 794.333 504.986 793.333 507.12 792C509.253 790.667 511.186 789.133 512.92 787.4C516.386 784.067 519.453 780.667 522.12 777.2C524.786 773.6 526.386 771.533 526.92 771C527.32 770.467 527.653 770.2 527.92 770.2C528.453 770.2 528.72 770.6 528.72 771.4C528.72 772.2 528.453 772.933 527.92 773.6C526.853 774.933 525.053 777.267 522.52 780.6C519.986 783.8 516.986 787.067 513.52 790.4C510.186 793.733 506.586 796.267 502.72 798C501.52 798.533 500.253 798.933 498.92 799.2C497.586 799.6 496.253 799.8 494.92 799.8C491.986 799.8 489.32 798.933 486.92 797.2C484.653 795.333 483.52 792.267 483.52 788C483.52 783.867 484.453 779.2 486.32 774C488.32 768.667 490.52 763.533 492.92 758.6C495.453 753.533 497.52 749.267 499.12 745.8C500.853 742.2 503.053 737.6 505.72 732C508.386 726.4 511.453 720.733 514.92 715L457.32 775.8C457.186 776.867 456.72 777.933 455.92 779C455.12 779.933 453.853 780.733 452.12 781.4C451.186 781.8 449.92 782.867 448.32 784.6C446.72 786.333 445.653 787.533 445.12 788.2C445.12 788.333 444.92 788.4 444.52 788.4C444.12 788.4 443.72 788.267 443.32 788C442.92 787.733 442.786 787.533 442.92 787.4C446.386 783 448.186 776.933 448.32 769.2L448.52 764.4C448.786 758.8 448.986 752.933 449.12 746.8C449.253 740.533 449.32 734.733 449.32 729.4C449.453 723.933 449.52 719.533 449.52 716.2C449.52 712.733 449.52 711 449.52 711C449.52 707.8 449.986 705 450.92 702.6C451.853 700.2 452.986 698.133 454.32 696.4C452.053 698.133 449.853 700.2 447.72 702.6C445.586 705 443.786 707.667 442.32 710.6C440.32 714.733 438.053 720.067 435.52 726.6C432.986 733.133 430.053 740.067 426.72 747.4C423.52 754.733 419.92 761.933 415.92 769C412.053 775.933 407.72 781.933 402.92 787C399.586 790.6 395.32 793.667 390.12 796.2C385.053 798.733 380.253 800 375.72 800ZM552.535 798.6C551.202 798.6 550.068 798.333 549.135 797.8C548.202 797.267 547.735 796.267 547.735 794.8C547.735 792.933 548.202 790.8 549.135 788.4C550.068 786 551.135 783.667 552.335 781.4C553.535 779 554.602 777.067 555.535 775.6C550.868 780.533 546.002 785.2 540.935 789.6C538.402 791.733 535.602 793.733 532.535 795.6C529.468 797.467 526.202 798.4 522.735 798.4C521.402 798.4 520.468 798 519.935 797.2C519.402 796.267 519.135 795.2 519.135 794C519.135 793.333 519.202 792.867 519.335 792.6C520.002 787.4 521.668 782 524.335 776.4C527.002 770.8 530.268 765.533 534.135 760.6C538.002 755.667 541.935 751.667 545.935 748.6C550.468 745.133 555.468 743.4 560.935 743.4H583.935C584.602 743.4 584.935 743.667 584.935 744.2C584.935 745.267 584.335 745.8 583.135 745.8C581.802 745.8 580.468 746.667 579.135 748.4C577.802 750 576.802 751.333 576.135 752.4C575.202 753.867 573.735 756.333 571.735 759.8C569.735 763.267 567.668 767.067 565.535 771.2C563.535 775.2 561.802 778.933 560.335 782.4C558.868 785.867 558.135 788.4 558.135 790C558.135 791.867 559.068 792.8 560.935 792.8C562.935 792.8 565.202 791.867 567.735 790C570.268 788.133 572.802 785.867 575.335 783.2C578.002 780.4 580.402 777.667 582.535 775C584.802 772.2 586.602 770 587.935 768.4C588.735 769.2 588.668 770.333 587.735 771.8C586.935 773.133 586.202 774.2 585.535 775C582.868 778.467 579.802 782.067 576.335 785.8C572.868 789.4 569.068 792.467 564.935 795C560.935 797.4 556.802 798.6 552.535 798.6ZM530.935 791.6C532.535 791.6 534.735 790.467 537.535 788.2C540.468 785.8 543.602 782.867 546.935 779.4C550.268 775.8 553.402 772.067 556.335 768.2C559.268 764.2 561.668 760.6 563.535 757.4C565.535 754.067 566.535 751.533 566.535 749.8C566.535 748.333 566.068 747.333 565.135 746.8C564.335 746.267 563.268 746 561.935 746C559.802 746 557.468 746.8 554.935 748.4C552.535 749.867 550.602 751.333 549.135 752.8C547.535 754.267 545.602 756.6 543.335 759.8C541.202 762.867 539.068 766.267 536.935 770C534.802 773.733 533.002 777.333 531.535 780.8C530.068 784.267 529.335 787.067 529.335 789.2C529.335 790.8 529.868 791.6 530.935 791.6ZM585.324 800.8C584.791 800.8 584.791 800.267 585.324 799.2C585.991 798 586.591 796.667 587.124 795.2C587.791 793.733 588.458 792.133 589.124 790.4C590.458 787.2 591.924 783.6 593.524 779.6C595.124 775.6 596.658 771.733 598.124 768C599.591 764.133 600.858 760.867 601.924 758.2C603.124 755.4 603.924 753.6 604.324 752.8C602.458 754.8 600.191 757.333 597.524 760.4C594.991 763.333 592.591 766.2 590.324 769C588.058 771.8 586.324 774 585.124 775.6C584.724 776.133 584.391 776.4 584.124 776.4C583.858 776.4 583.724 776.067 583.724 775.4C583.724 774.333 584.058 773.333 584.724 772.4C587.258 769.2 590.058 765.6 593.124 761.6C596.324 757.6 599.191 753.933 601.724 750.6C604.258 747.133 605.858 744.867 606.524 743.8C607.991 743.533 610.124 743.133 612.924 742.6C615.858 742.067 617.858 741.333 618.924 740.4C619.324 740 619.724 739.8 620.124 739.8C620.391 739.8 620.524 740.067 620.524 740.6C620.658 741 620.524 741.467 620.124 742C619.324 742.8 618.124 744.533 616.524 747.2C615.058 749.867 613.391 752.933 611.524 756.4C609.658 759.867 607.858 763.2 606.124 766.4C607.458 764.4 609.191 762.067 611.324 759.4C613.591 756.6 616.058 753.933 618.724 751.4C621.391 748.733 624.058 746.533 626.724 744.8C629.524 743.067 632.124 742.2 634.524 742.2C636.258 742.2 637.724 742.6 638.924 743.4C640.124 744.067 641.058 745.333 641.724 747.2C642.124 748.133 642.324 749.2 642.324 750.4C642.324 752.667 641.724 754.867 640.524 757C639.458 759 638.658 760.533 638.124 761.6C637.991 762 637.524 762.4 636.724 762.8C635.924 763.067 635.591 762.933 635.724 762.4C635.858 761.733 635.924 761.067 635.924 760.4C636.058 759.733 636.124 759 636.124 758.2C636.124 755.933 635.658 753.867 634.724 752C633.924 750.133 632.391 749.2 630.124 749.2C627.991 749.2 625.391 750.533 622.324 753.2C619.258 755.867 616.191 758.933 613.124 762.4C609.258 766.933 606.191 771.267 603.924 775.4C601.658 779.4 599.791 783.333 598.324 787.2C597.524 789.333 596.724 791.467 595.924 793.6C595.124 795.6 594.524 797.2 594.124 798.4C592.391 798.533 590.658 798.933 588.924 799.6C587.191 800.4 585.991 800.8 585.324 800.8ZM618.016 868C612.95 868 608.083 866.8 603.416 864.4C598.616 862.133 595.083 858.6 592.816 853.8C592.016 852.067 591.483 850.2 591.216 848.2C590.95 846.333 590.816 844.467 590.816 842.6V840.4C590.816 839.333 590.95 838.333 591.216 837.4C591.483 836.6 592.15 836.2 593.216 836.2C593.483 836.2 593.616 836.333 593.616 836.6C593.616 837.4 593.55 838.2 593.416 839C593.283 839.8 593.216 840.667 593.216 841.6C593.216 847.733 595.216 852.4 599.216 855.6C603.083 858.8 607.95 860.4 613.816 860.4C616.216 860.4 618.683 860.133 621.216 859.6C623.75 859.067 626.15 858.333 628.416 857.4C636.816 853.8 644.083 848.667 650.216 842C656.483 835.467 661.95 828.067 666.616 819.8C671.283 811.533 675.483 803.133 679.216 794.6C681.35 789.533 683.216 784.6 684.816 779.8C686.55 775 688.083 770.667 689.416 766.8C688.083 768.667 686.35 770.933 684.216 773.6C682.083 776.267 679.95 778.867 677.816 781.4C675.683 783.8 673.816 785.733 672.216 787.2C668.883 790.4 665.283 793.133 661.416 795.4C657.683 797.533 653.816 798.6 649.816 798.6C648.483 798.6 647.35 798.333 646.416 797.8C645.483 797.267 645.016 796.267 645.016 794.8C645.016 792.933 645.483 790.733 646.416 788.2C647.483 785.667 648.616 783.133 649.816 780.6C651.016 778.067 652.016 776 652.816 774.4C654.416 771.333 655.95 768.267 657.416 765.2C658.883 762.133 660.15 759.533 661.216 757.4C662.283 755.4 662.816 754.067 662.816 753.4C662.816 752.333 662.016 752.333 660.416 753.4C658.95 754.467 657.55 755.533 656.216 756.6C653.283 759.4 650.216 762.733 647.016 766.6C643.816 770.333 641.35 773.333 639.616 775.6C639.216 776.133 638.883 776.4 638.616 776.4C638.35 776.4 638.216 776.067 638.216 775.4C638.216 774.333 638.55 773.333 639.216 772.4C641.083 769.733 643.283 766.8 645.816 763.6C648.35 760.4 650.95 757.333 653.616 754.4C656.15 751.733 658.75 749.133 661.416 746.6C664.083 744.067 667.483 742.8 671.616 742.8C674.416 742.8 675.816 743.867 675.816 746C675.816 747.867 675.016 750 673.416 752.4C672.483 753.867 671.016 756.333 669.016 759.8C667.016 763.267 664.95 767.067 662.816 771.2C660.816 775.2 659.083 778.933 657.616 782.4C656.15 785.867 655.416 788.4 655.416 790C655.416 791.867 656.35 792.8 658.216 792.8C659.683 792.8 661.483 792.067 663.616 790.6C665.75 789 667.95 787.133 670.216 785C674.083 781.267 677.616 777.133 680.816 772.6C684.15 768.067 687.016 763.733 689.416 759.6C689.816 758.933 690.483 757.733 691.416 756C692.483 754.267 693.55 752.6 694.616 751C695.816 749.4 696.75 748.467 697.416 748.2C698.083 747.933 699.416 747.2 701.416 746C703.416 744.8 705.416 744 707.416 743.6C709.283 743.2 710.683 743 711.616 743C713.083 743 713.816 743.4 713.816 744.2C713.816 745.267 713.216 745.8 712.016 745.8C710.55 745.8 709.216 746.2 708.016 747C706.816 747.667 705.883 748.533 705.216 749.6C704.016 751.333 702.283 754.467 700.016 759C697.883 763.533 695.483 768.8 692.816 774.8C690.283 780.667 687.75 786.667 685.216 792.8C682.683 798.8 680.35 804.333 678.216 809.4C675.016 817 671.35 824.4 667.216 831.6C663.083 838.933 658.216 845.467 652.616 851.2C647.15 857.067 640.616 861.667 633.016 865C628.483 867 623.483 868 618.016 868ZM736.555 801.8C735.622 801.8 734.889 801.533 734.355 801C733.822 800.6 733.822 800.267 734.355 800C737.289 799.467 739.822 798.4 741.955 796.8C744.089 795.067 745.822 792.933 747.155 790.4C749.955 785.733 752.689 781.067 755.355 776.4C758.022 771.6 760.622 766.8 763.155 762L782.355 726.6C785.422 721.133 788.089 715.867 790.355 710.8C792.755 705.733 794.622 702.067 795.955 699.8C796.889 698.067 798.489 696.533 800.755 695.2C803.155 693.733 805.489 692.6 807.755 691.8C806.955 691.8 806.155 691.8 805.355 691.8C804.555 691.667 803.689 691.6 802.755 691.6C798.622 691.6 794.089 691.867 789.155 692.4C784.355 692.8 779.622 693.467 774.955 694.4C770.422 695.333 766.422 696.6 762.955 698.2C759.489 699.8 757.155 701.733 755.955 704C755.422 705.2 754.955 706.4 754.555 707.6C754.155 708.8 753.955 710 753.955 711.2C753.955 714.267 755.022 716.467 757.155 717.8C757.289 717.8 757.355 717.933 757.355 718.2C757.355 718.467 757.089 718.733 756.555 719C756.155 719.267 755.755 719.333 755.355 719.2C754.155 718.533 752.689 716.933 750.955 714.4C749.222 711.733 748.155 709.533 747.755 707.8C747.355 706.2 747.155 704.733 747.155 703.4C747.155 699.933 748.289 697.267 750.555 695.4C752.822 693.4 755.689 692 759.155 691.2C762.622 690.267 766.155 689.733 769.755 689.6C773.489 689.333 776.755 689.2 779.555 689.2C783.822 689.2 788.889 689.2 794.755 689.2C800.622 689.067 806.022 689 810.955 689C812.155 689 813.489 689 814.955 689C816.422 688.867 817.955 688.8 819.555 688.8C823.155 688.8 826.889 689 830.755 689.4C834.622 689.8 838.155 690.667 841.355 692C844.555 693.333 847.022 695.4 848.755 698.2C850.489 701.133 851.355 704.333 851.355 707.8C851.355 711.133 850.689 714.467 849.355 717.8C848.022 721.133 846.422 724 844.555 726.4C843.355 727.867 841.955 729.333 840.355 730.8C838.755 732.267 836.955 733.667 834.955 735C832.955 736.333 830.755 737.6 828.355 738.8C826.089 739.867 823.355 740.733 820.155 741.4C820.022 741.4 819.889 741.6 819.755 742C819.755 742.4 819.889 742.6 820.155 742.6C820.822 742.733 821.955 742.933 823.555 743.2C825.289 743.333 826.822 743.533 828.155 743.8C832.822 744.733 836.689 746.733 839.755 749.8C842.955 752.733 844.555 756.733 844.555 761.8C844.555 767.533 843.022 772.8 839.955 777.6C837.022 782.4 833.222 786.533 828.555 790C823.889 793.333 819.022 795.933 813.955 797.8C807.555 800.2 800.222 801.4 791.955 801.4C787.022 801.4 781.889 800.933 776.555 800C771.222 799.067 766.355 797.467 761.955 795.2C761.022 794.667 760.089 794.267 759.155 794C758.222 793.6 757.222 793.4 756.155 793.4C754.289 793.4 752.289 793.933 750.155 795C748.822 795.533 747.089 796.533 744.955 798C742.822 799.467 740.422 800.667 737.755 801.6C737.489 801.733 737.089 801.8 736.555 801.8ZM785.555 798.6C789.022 798.6 792.489 798.267 795.955 797.6C799.422 796.8 802.555 795.867 805.355 794.8C810.289 792.933 814.822 790.333 818.955 787C823.089 783.533 826.422 779.467 828.955 774.8C831.622 770 832.955 764.667 832.955 758.8C832.955 754.933 831.955 752 829.955 750C827.955 747.867 825.422 746.4 822.355 745.6C819.289 744.8 816.089 744.4 812.755 744.4C810.222 744.4 807.822 744.533 805.555 744.8C803.289 745.067 801.222 745.4 799.355 745.8C795.622 746.467 792.289 747.2 789.355 748C788.822 747.733 788.889 747.267 789.555 746.6C790.222 745.8 791.089 744.933 792.155 744C793.355 743.067 794.289 742.333 794.955 741.8C795.222 741.533 795.755 741.133 796.555 740.6C797.489 739.933 798.222 739.6 798.755 739.6C805.289 739.6 811.089 739.2 816.155 738.4C821.355 737.6 825.822 735.667 829.555 732.6C833.289 729.4 836.355 724.467 838.755 717.8C839.955 714.333 840.555 710.933 840.555 707.6C840.555 703.733 839.622 700.4 837.755 697.6C835.889 694.667 832.889 692.933 828.755 692.4C828.222 692.267 827.622 692.2 826.955 692.2C826.289 692.2 825.622 692.2 824.955 692.2C822.422 692.2 819.622 692.533 816.555 693.2C813.622 693.867 811.422 695.133 809.955 697C806.622 701.4 803.422 706.4 800.355 712C797.289 717.467 794.355 723.067 791.555 728.8C788.755 734.4 786.089 739.667 783.555 744.6C780.489 750.6 777.355 756.667 774.155 762.8C770.955 768.933 767.822 775.133 764.755 781.4C763.955 783 763.555 784.533 763.555 786C763.555 788.667 765.222 791.267 768.555 793.8C770.822 795.533 773.422 796.8 776.355 797.6C779.422 798.267 782.489 798.6 785.555 798.6ZM864.66 798.6C863.327 798.6 862.193 798.333 861.26 797.8C860.327 797.267 859.86 796.267 859.86 794.8C859.86 792.933 860.327 790.733 861.26 788.2C862.327 785.667 863.46 783.133 864.66 780.6C865.86 778.067 866.86 776 867.66 774.4C869.26 771.333 870.793 768.267 872.26 765.2C873.727 762.133 874.993 759.533 876.06 757.4C877.127 755.4 877.66 754.067 877.66 753.4C877.66 752.333 876.86 752.333 875.26 753.4C873.793 754.467 872.393 755.533 871.06 756.6C868.127 759.4 865.06 762.733 861.86 766.6C858.66 770.333 856.193 773.333 854.46 775.6C854.06 776.133 853.727 776.4 853.46 776.4C853.193 776.4 853.06 776.067 853.06 775.4C853.06 774.333 853.393 773.333 854.06 772.4C855.927 769.733 858.127 766.8 860.66 763.6C863.193 760.4 865.793 757.333 868.46 754.4C870.993 751.733 873.593 749.133 876.26 746.6C878.927 744.067 882.327 742.8 886.46 742.8C889.26 742.8 890.66 743.867 890.66 746C890.66 747.867 889.86 750 888.26 752.4C887.327 753.867 885.86 756.333 883.86 759.8C881.86 763.267 879.793 767.067 877.66 771.2C875.66 775.2 873.927 778.933 872.46 782.4C870.993 785.867 870.26 788.4 870.26 790C870.26 791.867 871.193 792.8 873.06 792.8C874.527 792.8 876.327 792.067 878.46 790.6C880.593 789 882.793 787.133 885.06 785C889.193 781 892.927 776.667 896.26 772C899.727 767.2 902.66 762.6 905.06 758.2C907.593 753.8 909.593 750.2 911.06 747.4C911.327 746.867 911.593 746.267 911.86 745.6C912.26 744.8 912.86 744.333 913.66 744.2C914.46 744.067 916.193 744 918.86 744C921.527 744 923.993 743.467 926.26 742.4H926.66C927.06 742.4 927.26 742.6 927.26 743C927.26 744.067 926.393 744.867 924.66 745.4C923.06 745.933 921.193 747.533 919.06 750.2C917.06 752.867 915.06 756.133 913.06 760C911.06 763.733 909.26 767.6 907.66 771.6C906.06 775.6 904.86 779.267 904.06 782.6C903.26 785.933 903.06 788.4 903.46 790C903.993 791.867 904.927 792.8 906.26 792.8C907.993 792.8 910.393 791.733 913.46 789.6C916.66 787.467 919.927 784.933 923.26 782C926.593 778.933 929.327 776.133 931.46 773.6C932.393 772.533 933.26 771.467 934.06 770.4C934.86 769.333 935.393 768.667 935.66 768.4C935.793 768.533 935.927 768.8 936.06 769.2C936.193 769.467 936.26 769.733 936.26 770C936.127 770.933 935.793 771.867 935.26 772.8C934.727 773.6 934.127 774.333 933.46 775C930.927 778.333 927.86 781.867 924.26 785.6C920.793 789.2 916.993 792.267 912.86 794.8C908.86 797.333 904.727 798.6 900.46 798.6C899.127 798.6 897.593 798.267 895.86 797.6C894.26 796.933 893.46 795.467 893.46 793.2C893.46 791.467 893.927 789.133 894.86 786.2C895.793 783.133 896.793 780.133 897.86 777.2C899.06 774.133 900.06 771.867 900.86 770.4C899.127 772.933 896.993 775.8 894.46 779C892.06 782.067 889.593 784.8 887.06 787.2C883.727 790.4 880.127 793.133 876.26 795.4C872.527 797.533 868.66 798.6 864.66 798.6ZM885.576 843.2C880.376 843.2 876.042 842.333 872.576 840.6C868.976 839 866.576 836.533 865.376 833.2C865.242 832.8 865.176 832.4 865.176 832C865.042 831.6 864.976 831.133 864.976 830.6C864.976 828.6 865.442 826.333 866.376 823.8C867.309 821.4 868.309 818.8 869.376 816C869.776 815.2 870.242 814.8 870.776 814.8C871.709 814.8 871.976 815.467 871.576 816.8C870.642 818.8 870.176 820.933 870.176 823.2C870.176 827.733 872.176 831.333 876.176 834C880.176 836.667 884.709 838 889.776 838C891.776 838 893.842 837.733 895.976 837.2C897.976 836.8 899.909 836.133 901.776 835.2C908.042 832 913.176 827.733 917.176 822.4C921.176 817.067 924.709 811.533 927.776 805.8C932.442 796.867 936.442 787.533 939.776 777.8C943.242 767.933 946.909 758.2 950.776 748.6C947.842 748.6 945.776 748.667 944.576 748.8C943.376 748.933 942.442 749.067 941.776 749.2L941.376 749C941.642 747.533 942.909 746.267 945.176 745.2C947.576 744 949.442 743.4 950.776 743.4H953.176C954.642 739.8 956.576 735.533 958.976 730.6C961.509 725.667 964.042 720.8 966.576 716C969.242 711.067 971.576 706.933 973.576 703.6C979.176 694.4 985.642 687.733 992.976 683.6C1000.31 679.333 1008.04 677.2 1016.18 677.2C1017.78 677.2 1019.31 677.733 1020.78 678.8C1022.38 679.733 1023.11 681.2 1022.98 683.2L1022.58 687.6C1030.84 679.733 1040.18 675.8 1050.58 675.8C1052.18 675.8 1053.71 676.333 1055.18 677.4C1056.78 678.333 1057.51 679.8 1057.38 681.8L1056.78 689C1056.78 689.4 1056.44 689.6 1055.78 689.6C1055.51 689.6 1055.38 689.533 1055.38 689.4C1054.98 687 1053.71 685.133 1051.58 683.8C1049.58 682.467 1047.18 681.8 1044.38 681.8C1042.38 681.8 1040.24 682.2 1037.98 683C1034.24 684.2 1030.64 686.4 1027.18 689.6C1023.84 692.667 1020.24 697.533 1016.38 704.2C1014.51 707.533 1012.58 711.467 1010.58 716C1008.58 720.533 1006.58 725.2 1004.58 730C1002.58 734.8 1000.64 739.267 998.776 743.4H1013.18C1014.11 743.4 1015.04 743.4 1015.98 743.4C1017.04 743.267 1018.04 743.133 1018.98 743C1018.98 744.333 1017.98 745.4 1015.98 746.2C1014.11 746.867 1011.78 747.4 1008.98 747.8C1006.31 748.067 1003.78 748.267 1001.38 748.4C998.976 748.533 997.376 748.6 996.576 748.6C993.642 755.933 990.842 762.933 988.176 769.6C985.642 776.133 982.842 782.533 979.776 788.8C977.242 794.4 974.109 800.333 970.376 806.6C966.642 812.867 962.376 818.8 957.576 824.4C952.776 830 947.376 834.533 941.376 838C935.509 841.467 929.042 843.2 921.976 843.2C914.109 843.2 908.376 841.4 904.776 837.8C901.842 839.533 898.776 840.867 895.576 841.8C892.376 842.733 889.042 843.2 885.576 843.2ZM979.976 704.2C978.242 707.4 976.309 711.333 974.176 716C972.176 720.533 970.109 725.2 967.976 730C965.976 734.8 964.109 739.267 962.376 743.4H989.576C991.042 739.8 992.976 735.533 995.376 730.6C997.909 725.667 1000.44 720.8 1002.98 716C1005.64 711.067 1007.98 706.933 1009.98 703.6C1013.44 698 1017.04 693.2 1020.78 689.2C1020.38 686.8 1018.91 684.933 1016.38 683.6C1013.98 682.133 1011.24 681.4 1008.18 681.4C1005.38 681.4 1002.84 681.867 1000.58 682.8C996.976 684.267 993.576 686.533 990.376 689.6C987.309 692.667 983.842 697.533 979.976 704.2ZM925.976 838C930.376 838 934.442 837.067 938.176 835.2C944.442 832 949.576 827.733 953.576 822.4C957.576 817.067 961.109 811.533 964.176 805.8C968.842 796.867 972.842 787.533 976.176 777.8C979.642 767.933 983.309 758.2 987.176 748.6H960.376C957.576 755.667 954.776 762.6 951.976 769.4C949.176 776.2 946.309 782.667 943.376 788.8C941.109 793.6 938.376 798.733 935.176 804.2C932.109 809.8 928.642 815.133 924.776 820.2C920.909 825.267 916.576 829.667 911.776 833.4C915.509 836.467 920.242 838 925.976 838ZM1016.23 799.6C1010.76 799.6 1006.96 798.533 1004.83 796.4C1002.69 794.267 1001.63 791.667 1001.63 788.6C1001.63 784.733 1002.63 780.6 1004.63 776.2C1006.76 771.8 1008.76 768.067 1010.63 765C1012.76 761.8 1015.63 758.467 1019.23 755C1022.83 751.533 1026.76 748.6 1031.03 746.2C1035.29 743.8 1039.43 742.6 1043.43 742.6C1046.89 742.6 1049.29 743.467 1050.63 745.2C1051.96 746.8 1052.63 748.733 1052.63 751C1052.63 755.133 1051.36 758.533 1048.83 761.2C1046.43 763.867 1043.43 766.067 1039.83 767.8C1036.23 769.4 1032.76 770.733 1029.43 771.8C1027.43 772.333 1025.09 772.867 1022.43 773.4C1019.76 773.933 1017.23 774.2 1014.83 774.2C1013.89 776.6 1013.16 778.933 1012.63 781.2C1012.09 783.467 1011.83 785.533 1011.83 787.4C1011.83 789.667 1012.36 791.533 1013.43 793C1014.63 794.467 1016.56 795.2 1019.23 795.2C1020.29 795.2 1021.56 795.067 1023.03 794.8C1024.49 794.533 1026.09 794.133 1027.83 793.6C1031.83 792.267 1035.76 790.133 1039.63 787.2C1043.49 784.267 1047.03 781.133 1050.23 777.8C1053.56 774.333 1056.09 771.467 1057.83 769.2C1058.23 769.6 1058.43 770.067 1058.43 770.6C1058.43 771.267 1057.96 772.333 1057.03 773.8C1054.36 777.533 1050.89 781.4 1046.63 785.4C1042.36 789.4 1037.63 792.8 1032.43 795.6C1027.23 798.267 1021.83 799.6 1016.23 799.6ZM1016.43 770.2C1018.16 770.333 1020.09 770.333 1022.23 770.2C1024.49 769.933 1026.69 769.467 1028.83 768.8C1034.29 767.2 1038.23 764.667 1040.63 761.2C1043.16 757.6 1044.43 754.4 1044.43 751.6C1044.43 750 1044.09 748.667 1043.43 747.6C1042.76 746.533 1041.69 746 1040.23 746C1036.36 746 1032.89 747.467 1029.83 750.4C1026.76 753.2 1024.09 756.467 1021.83 760.2C1019.56 763.933 1017.76 767.267 1016.43 770.2ZM1062.63 798.6C1061.3 798.6 1060.17 798.333 1059.23 797.8C1058.3 797.267 1057.83 796.267 1057.83 794.8C1057.83 792.933 1058.3 790.733 1059.23 788.2C1060.3 785.667 1061.43 783.133 1062.63 780.6C1063.83 778.067 1064.83 776 1065.63 774.4C1066.3 773.2 1067.17 771.333 1068.23 768.8C1069.43 766.133 1070.63 763.4 1071.83 760.6C1073.17 757.667 1074.23 755.2 1075.03 753.2C1075.97 751.2 1076.43 750.2 1076.43 750.2C1075.23 751.533 1073.63 753.4 1071.63 755.8C1069.77 758.2 1067.7 760.733 1065.43 763.4C1063.3 765.933 1061.3 768.333 1059.43 770.6C1057.7 772.867 1056.43 774.533 1055.63 775.6C1055.23 776.133 1054.9 776.4 1054.63 776.4C1054.37 776.4 1054.23 776.067 1054.23 775.4C1054.23 774.333 1054.57 773.333 1055.23 772.4C1056.83 770.4 1058.77 768 1061.03 765.2C1063.3 762.267 1065.57 759.333 1067.83 756.4C1070.23 753.467 1072.3 750.867 1074.03 748.6C1072.97 748.6 1071.57 748.667 1069.83 748.8C1068.23 748.933 1066.77 749.133 1065.43 749.4C1064.1 749.533 1063.37 749.6 1063.23 749.6C1062.57 749.6 1062.63 749.067 1063.43 748C1064.23 746.933 1065.3 745.867 1066.63 744.8C1067.97 743.733 1068.97 743.2 1069.63 743.2C1069.77 743.2 1070.83 743.267 1072.83 743.4C1074.83 743.4 1076.3 743.4 1077.23 743.4C1079.9 739.8 1082.5 735.667 1085.03 731C1087.7 726.333 1090.3 721.2 1092.83 715.6C1093.9 715.467 1095.7 714.733 1098.23 713.4C1100.9 711.933 1102.97 710.467 1104.43 709C1105.1 708.333 1105.63 708 1106.03 708C1106.83 708 1106.83 708.533 1106.03 709.6C1105.1 710.667 1103.5 712.933 1101.23 716.4C1098.97 719.733 1096.43 723.8 1093.63 728.6C1090.83 733.267 1088.17 738.2 1085.63 743.4H1101.83C1103.3 743.4 1104.03 743.6 1104.03 744C1104.03 744.533 1103.03 745.067 1101.03 745.6C1098.77 746.267 1096.37 746.667 1093.83 746.8C1091.43 746.933 1089.17 747.2 1087.03 747.6C1085.03 748 1083.57 748.867 1082.63 750.2C1081.83 751.133 1080.7 753.133 1079.23 756.2C1077.77 759.267 1076.17 762.8 1074.43 766.8C1072.83 770.667 1071.43 774.6 1070.23 778.6C1069.03 782.467 1068.3 785.733 1068.03 788.4V789.2C1068.03 790.267 1068.37 791.133 1069.03 791.8C1069.7 792.467 1070.37 792.8 1071.03 792.8C1072.77 792.8 1074.97 791.733 1077.63 789.6C1080.43 787.467 1083.3 784.933 1086.23 782C1089.17 778.933 1091.7 776.133 1093.83 773.6C1094.77 772.533 1095.57 771.533 1096.23 770.6C1097.03 769.667 1097.5 769.067 1097.63 768.8C1097.9 769.333 1098.03 769.733 1098.03 770C1098.03 770.8 1097.77 771.667 1097.23 772.6C1096.83 773.533 1096.37 774.333 1095.83 775C1093.3 778.333 1090.23 781.867 1086.63 785.6C1083.03 789.2 1079.17 792.267 1075.03 794.8C1071.03 797.333 1066.9 798.6 1062.63 798.6Z" fill="#FEBA13"/>
<path d="M503.101 934V898.99H522.803V901.993H506.25V915.006H519.653V918.009H506.25V930.997H522.803V934H503.101ZM548.022 925.895C548.022 927.083 547.778 928.198 547.29 929.239C546.818 930.281 546.175 931.192 545.361 931.974C544.564 932.755 543.628 933.373 542.554 933.829C541.496 934.269 540.373 934.488 539.185 934.488H536.67C535.482 934.488 534.351 934.269 533.276 933.829C532.218 933.373 531.283 932.755 530.469 931.974C529.671 931.192 529.028 930.281 528.54 929.239C528.068 928.198 527.832 927.083 527.832 925.895V924.503L530.981 923.99V925.895C530.981 926.676 531.136 927.408 531.445 928.092C531.771 928.759 532.202 929.353 532.739 929.874C533.276 930.379 533.895 930.777 534.595 931.07C535.311 931.363 536.06 931.51 536.841 931.51H539.038C539.819 931.51 540.56 931.363 541.26 931.07C541.96 930.777 542.578 930.379 543.115 929.874C543.652 929.353 544.076 928.759 544.385 928.092C544.71 927.408 544.873 926.676 544.873 925.895V924.845C544.873 923.64 544.637 922.639 544.165 921.842C543.693 921.044 543.066 920.369 542.285 919.815C541.504 919.246 540.617 918.766 539.624 918.375C538.647 917.984 537.638 917.594 536.597 917.203C535.555 916.812 534.538 916.381 533.545 915.909C532.568 915.437 531.689 914.851 530.908 914.151C530.127 913.435 529.5 912.564 529.028 911.539C528.556 910.514 528.32 909.252 528.32 907.755V907.096C528.32 905.908 528.54 904.793 528.979 903.751C529.435 902.709 530.054 901.798 530.835 901.017C531.616 900.235 532.528 899.625 533.569 899.186C534.627 898.73 535.75 898.502 536.938 898.502H539.185C540.373 898.502 541.488 898.73 542.529 899.186C543.571 899.625 544.482 900.235 545.264 901.017C546.045 901.798 546.655 902.709 547.095 903.751C547.55 904.793 547.778 905.908 547.778 907.096V907.999L544.629 908.512V907.096C544.629 906.314 544.482 905.59 544.189 904.923C543.896 904.239 543.498 903.645 542.993 903.141C542.489 902.636 541.895 902.237 541.211 901.944C540.544 901.651 539.819 901.505 539.038 901.505H537.085C536.304 901.505 535.571 901.651 534.888 901.944C534.22 902.237 533.626 902.636 533.105 903.141C532.601 903.645 532.202 904.239 531.909 904.923C531.616 905.59 531.47 906.314 531.47 907.096V907.755C531.47 908.878 531.706 909.822 532.178 910.587C532.65 911.352 533.276 912.011 534.058 912.564C534.839 913.102 535.718 913.574 536.694 913.98C537.687 914.371 538.704 914.778 539.746 915.201C540.788 915.608 541.797 916.064 542.773 916.568C543.766 917.057 544.653 917.667 545.435 918.399C546.216 919.116 546.842 919.994 547.314 921.036C547.786 922.078 548.022 923.347 548.022 924.845V925.895ZM574.512 911.954C574.512 913.142 574.284 914.257 573.828 915.299C573.389 916.34 572.778 917.252 571.997 918.033C571.216 918.814 570.296 919.433 569.238 919.889C568.197 920.328 567.082 920.548 565.894 920.548H557.959V934H554.81V898.99H565.894C567.082 898.99 568.197 899.218 569.238 899.674C570.296 900.113 571.216 900.724 571.997 901.505C572.778 902.286 573.389 903.206 573.828 904.264C574.284 905.305 574.512 906.42 574.512 907.608V911.954ZM571.362 907.608C571.362 906.827 571.216 906.103 570.923 905.436C570.63 904.752 570.223 904.158 569.702 903.653C569.198 903.132 568.604 902.726 567.92 902.433C567.253 902.14 566.528 901.993 565.747 901.993H557.959V917.545H565.747C566.528 917.545 567.253 917.398 567.92 917.105C568.604 916.812 569.198 916.414 569.702 915.909C570.223 915.405 570.63 914.819 570.923 914.151C571.216 913.468 571.362 912.735 571.362 911.954V907.608ZM593.677 925.846H582.593L580.298 934H577.026L587.28 898.99H588.94L599.243 934H595.996L593.677 925.846ZM583.447 922.843H592.847L588.232 906.705L588.135 905.411L588.037 906.705L583.447 922.843ZM612.134 934.488H611.841C610.653 934.488 609.53 934.269 608.472 933.829C607.43 933.373 606.519 932.755 605.737 931.974C604.956 931.192 604.338 930.281 603.882 929.239C603.442 928.198 603.223 927.083 603.223 925.895V907.096C603.223 905.908 603.442 904.793 603.882 903.751C604.338 902.709 604.956 901.798 605.737 901.017C606.519 900.235 607.43 899.625 608.472 899.186C609.53 898.73 610.653 898.502 611.841 898.502H614.331C615.519 898.502 616.634 898.73 617.676 899.186C618.717 899.625 619.629 900.235 620.41 901.017C621.191 901.798 621.802 902.709 622.241 903.751C622.697 904.793 622.925 905.908 622.925 907.096V908.512L619.775 909V907.096C619.775 906.314 619.629 905.59 619.336 904.923C619.043 904.239 618.644 903.645 618.14 903.141C617.635 902.636 617.041 902.237 616.357 901.944C615.69 901.651 614.966 901.505 614.185 901.505H611.987C611.206 901.505 610.474 901.651 609.79 901.944C609.123 902.237 608.529 902.636 608.008 903.141C607.503 903.645 607.104 904.239 606.812 904.923C606.519 905.59 606.372 906.314 606.372 907.096V925.895C606.372 926.676 606.519 927.408 606.812 928.092C607.104 928.759 607.503 929.353 608.008 929.874C608.529 930.379 609.123 930.777 609.79 931.07C610.474 931.363 611.206 931.51 611.987 931.51H614.185C614.966 931.51 615.69 931.363 616.357 931.07C617.041 930.777 617.635 930.379 618.14 929.874C618.644 929.353 619.043 928.759 619.336 928.092C619.629 927.408 619.775 926.676 619.775 925.895V923.99L622.925 924.503V925.895C622.925 927.083 622.697 928.198 622.241 929.239C621.802 930.281 621.191 931.192 620.41 931.974C619.629 932.755 618.717 933.373 617.676 933.829C616.634 934.269 615.519 934.488 614.331 934.488H614.233L613.086 936.49C613.232 936.555 613.436 936.669 613.696 936.832C613.957 937.011 614.209 937.247 614.453 937.54C614.697 937.833 614.909 938.183 615.088 938.59C615.283 938.997 615.381 939.469 615.381 940.006C615.381 940.624 615.267 941.186 615.039 941.69C614.811 942.195 614.494 942.618 614.087 942.96C613.696 943.318 613.224 943.587 612.671 943.766C612.134 943.961 611.54 944.059 610.889 944.059C610.156 944.059 609.489 943.912 608.887 943.619C608.285 943.342 607.747 942.968 607.275 942.496L608.423 940.738C608.504 940.836 608.618 940.95 608.765 941.08C608.927 941.21 609.115 941.332 609.326 941.446C609.554 941.56 609.798 941.658 610.059 941.739C610.335 941.821 610.628 941.861 610.938 941.861C611.54 941.861 612.044 941.69 612.451 941.349C612.874 941.007 613.086 940.527 613.086 939.908C613.086 939.518 613.005 939.176 612.842 938.883C612.695 938.59 612.484 938.346 612.207 938.15C611.947 937.955 611.637 937.817 611.279 937.735C610.938 937.654 610.571 937.63 610.181 937.662L612.134 934.488ZM649.146 925.895C649.146 927.083 648.918 928.198 648.462 929.239C648.022 930.281 647.412 931.192 646.631 931.974C645.85 932.755 644.938 933.373 643.896 933.829C642.855 934.269 641.74 934.488 640.552 934.488H638.062C636.873 934.488 635.75 934.269 634.692 933.829C633.651 933.373 632.739 932.755 631.958 931.974C631.177 931.192 630.558 930.281 630.103 929.239C629.663 928.198 629.443 927.083 629.443 925.895V907.096C629.443 905.908 629.663 904.793 630.103 903.751C630.558 902.709 631.177 901.798 631.958 901.017C632.739 900.235 633.651 899.625 634.692 899.186C635.75 898.73 636.873 898.502 638.062 898.502H640.552C641.74 898.502 642.855 898.73 643.896 899.186C644.938 899.625 645.85 900.235 646.631 901.017C647.412 901.798 648.022 902.709 648.462 903.751C648.918 904.793 649.146 905.908 649.146 907.096V925.895ZM645.996 907.096C645.996 906.314 645.85 905.59 645.557 904.923C645.264 904.239 644.865 903.645 644.36 903.141C643.856 902.636 643.262 902.237 642.578 901.944C641.911 901.651 641.187 901.505 640.405 901.505H638.208C637.427 901.505 636.694 901.651 636.011 901.944C635.343 902.237 634.749 902.636 634.229 903.141C633.724 903.645 633.325 904.239 633.032 904.923C632.739 905.59 632.593 906.314 632.593 907.096V925.895C632.593 926.676 632.739 927.408 633.032 928.092C633.325 928.759 633.724 929.353 634.229 929.874C634.749 930.379 635.343 930.777 636.011 931.07C636.694 931.363 637.427 931.51 638.208 931.51H640.405C641.187 931.51 641.911 931.363 642.578 931.07C643.262 930.777 643.856 930.379 644.36 929.874C644.865 929.353 645.264 928.759 645.557 928.092C645.85 927.408 645.996 926.676 645.996 925.895V907.096ZM687.891 911.954C687.891 913.142 687.663 914.257 687.207 915.299C686.768 916.34 686.157 917.252 685.376 918.033C684.595 918.814 683.675 919.433 682.617 919.889C681.576 920.328 680.461 920.548 679.272 920.548H671.338V934H668.188V898.99H679.272C680.461 898.99 681.576 899.218 682.617 899.674C683.675 900.113 684.595 900.724 685.376 901.505C686.157 902.286 686.768 903.206 687.207 904.264C687.663 905.305 687.891 906.42 687.891 907.608V911.954ZM684.741 907.608C684.741 906.827 684.595 906.103 684.302 905.436C684.009 904.752 683.602 904.158 683.081 903.653C682.576 903.132 681.982 902.726 681.299 902.433C680.632 902.14 679.907 901.993 679.126 901.993H671.338V917.545H679.126C679.907 917.545 680.632 917.398 681.299 917.105C681.982 916.812 682.576 916.414 683.081 915.909C683.602 915.405 684.009 914.819 684.302 914.151C684.595 913.468 684.741 912.735 684.741 911.954V907.608ZM707.056 925.846H695.972L693.677 934H690.405L700.659 898.99H702.319L712.622 934H709.375L707.056 925.846ZM696.826 922.843H706.226L701.611 906.705L701.514 905.411L701.416 906.705L696.826 922.843ZM733.569 934L724.072 919.059H719.751V934H716.602V898.99H727.71C728.898 898.99 730.013 899.218 731.055 899.674C732.096 900.113 733.008 900.724 733.789 901.505C734.57 902.286 735.181 903.206 735.62 904.264C736.076 905.305 736.304 906.42 736.304 907.608V910.44C736.304 911.629 736.076 912.752 735.62 913.81C735.181 914.851 734.57 915.763 733.789 916.544C733.008 917.325 732.096 917.944 731.055 918.399C730.013 918.839 728.898 919.059 727.71 919.059L737.207 934H733.569ZM733.154 907.608C733.154 906.827 733.008 906.103 732.715 905.436C732.422 904.752 732.023 904.158 731.519 903.653C731.014 903.132 730.42 902.726 729.736 902.433C729.069 902.14 728.345 901.993 727.563 901.993H719.751V916.056H727.563C728.345 916.056 729.069 915.909 729.736 915.616C730.42 915.323 731.014 914.924 731.519 914.42C732.023 913.899 732.422 913.305 732.715 912.638C733.008 911.954 733.154 911.222 733.154 910.44V907.608ZM756.372 925.846H745.288L742.993 934H739.722L749.976 898.99H751.636L761.938 934H758.691L756.372 925.846ZM746.143 922.843H755.542L750.928 906.705L750.83 905.411L750.732 906.705L746.143 922.843ZM777.954 934V898.99H797.656V901.993H781.104V915.006H794.507V918.009H781.104V930.997H797.656V934H777.954ZM811.182 926.31L811.279 927.604L811.377 926.31L819.141 898.99H822.388L812.085 934H810.425L800.171 898.99H803.442L811.182 926.31ZM826.88 934V898.99H846.582V901.993H830.029V915.006H843.433V918.009H830.029V930.997H846.582V934H826.88ZM870.654 934L856.055 908.512L855.762 906.998V934H852.612V898.99H854.248L868.848 924.503L869.165 925.992V898.99H872.314V934H870.654ZM888.843 901.993V934H885.693V901.993H877.344V898.99H897.192V901.993H888.843ZM921.411 925.895C921.411 927.083 921.183 928.198 920.728 929.239C920.288 930.281 919.678 931.192 918.896 931.974C918.115 932.755 917.204 933.373 916.162 933.829C915.12 934.269 914.006 934.488 912.817 934.488H910.327C909.139 934.488 908.016 934.269 906.958 933.829C905.916 933.373 905.005 932.755 904.224 931.974C903.442 931.192 902.824 930.281 902.368 929.239C901.929 928.198 901.709 927.083 901.709 925.895V907.096C901.709 905.908 901.929 904.793 902.368 903.751C902.824 902.709 903.442 901.798 904.224 901.017C905.005 900.235 905.916 899.625 906.958 899.186C908.016 898.73 909.139 898.502 910.327 898.502H912.817C914.006 898.502 915.12 898.73 916.162 899.186C917.204 899.625 918.115 900.235 918.896 901.017C919.678 901.798 920.288 902.709 920.728 903.751C921.183 904.793 921.411 905.908 921.411 907.096V925.895ZM918.262 907.096C918.262 906.314 918.115 905.59 917.822 904.923C917.529 904.239 917.131 903.645 916.626 903.141C916.121 902.636 915.527 902.237 914.844 901.944C914.176 901.651 913.452 901.505 912.671 901.505H910.474C909.692 901.505 908.96 901.651 908.276 901.944C907.609 902.237 907.015 902.636 906.494 903.141C905.99 903.645 905.591 904.239 905.298 904.923C905.005 905.59 904.858 906.314 904.858 907.096V925.895C904.858 926.676 905.005 927.408 905.298 928.092C905.591 928.759 905.99 929.353 906.494 929.874C907.015 930.379 907.609 930.777 908.276 931.07C908.96 931.363 909.692 931.51 910.474 931.51H912.671C913.452 931.51 914.176 931.363 914.844 931.07C915.527 930.777 916.121 930.379 916.626 929.874C917.131 929.353 917.529 928.759 917.822 928.092C918.115 927.408 918.262 926.676 918.262 925.895V907.096ZM948.12 925.895C948.12 927.083 947.876 928.198 947.388 929.239C946.916 930.281 946.273 931.192 945.459 931.974C944.661 932.755 943.726 933.373 942.651 933.829C941.593 934.269 940.47 934.488 939.282 934.488H936.768C935.579 934.488 934.448 934.269 933.374 933.829C932.316 933.373 931.38 932.755 930.566 931.974C929.769 931.192 929.126 930.281 928.638 929.239C928.166 928.198 927.93 927.083 927.93 925.895V924.503L931.079 923.99V925.895C931.079 926.676 931.234 927.408 931.543 928.092C931.868 928.759 932.3 929.353 932.837 929.874C933.374 930.379 933.993 930.777 934.692 931.07C935.409 931.363 936.157 931.51 936.938 931.51H939.136C939.917 931.51 940.658 931.363 941.357 931.07C942.057 930.777 942.676 930.379 943.213 929.874C943.75 929.353 944.173 928.759 944.482 928.092C944.808 927.408 944.971 926.676 944.971 925.895V924.845C944.971 923.64 944.735 922.639 944.263 921.842C943.791 921.044 943.164 920.369 942.383 919.815C941.602 919.246 940.715 918.766 939.722 918.375C938.745 917.984 937.736 917.594 936.694 917.203C935.653 916.812 934.635 916.381 933.643 915.909C932.666 915.437 931.787 914.851 931.006 914.151C930.225 913.435 929.598 912.564 929.126 911.539C928.654 910.514 928.418 909.252 928.418 907.755V907.096C928.418 905.908 928.638 904.793 929.077 903.751C929.533 902.709 930.151 901.798 930.933 901.017C931.714 900.235 932.625 899.625 933.667 899.186C934.725 898.73 935.848 898.502 937.036 898.502H939.282C940.47 898.502 941.585 898.73 942.627 899.186C943.669 899.625 944.58 900.235 945.361 901.017C946.143 901.798 946.753 902.709 947.192 903.751C947.648 904.793 947.876 905.908 947.876 907.096V907.999L944.727 908.512V907.096C944.727 906.314 944.58 905.59 944.287 904.923C943.994 904.239 943.595 903.645 943.091 903.141C942.586 902.636 941.992 902.237 941.309 901.944C940.641 901.651 939.917 901.505 939.136 901.505H937.183C936.401 901.505 935.669 901.651 934.985 901.944C934.318 902.237 933.724 902.636 933.203 903.141C932.699 903.645 932.3 904.239 932.007 904.923C931.714 905.59 931.567 906.314 931.567 907.096V907.755C931.567 908.878 931.803 909.822 932.275 910.587C932.747 911.352 933.374 912.011 934.155 912.564C934.937 913.102 935.815 913.574 936.792 913.98C937.785 914.371 938.802 914.778 939.844 915.201C940.885 915.608 941.895 916.064 942.871 916.568C943.864 917.057 944.751 917.667 945.532 918.399C946.313 919.116 946.94 919.994 947.412 921.036C947.884 922.078 948.12 923.347 948.12 924.845V925.895Z" fill="white"/>
<path d="M596.069 419.837H606.056C607.364 419.812 608.609 419.274 609.525 418.341C610.44 417.407 610.953 416.151 610.953 414.843C610.953 413.536 610.44 412.28 609.524 411.346C608.609 410.413 607.363 409.875 606.056 409.85H596.069C594.761 409.875 593.516 410.413 592.6 411.347C591.684 412.28 591.171 413.536 591.171 414.844C591.171 416.151 591.684 417.407 592.6 418.341C593.516 419.274 594.761 419.812 596.069 419.837ZM626.031 419.837H636.018C637.325 419.812 638.571 419.274 639.486 418.341C640.402 417.407 640.915 416.151 640.915 414.843C640.915 413.536 640.402 412.28 639.486 411.346C638.571 410.413 637.325 409.875 636.018 409.85H626.031C624.723 409.875 623.478 410.413 622.562 411.347C621.646 412.28 621.133 413.536 621.133 414.844C621.133 416.151 621.646 417.407 622.562 418.341C623.478 419.274 624.723 419.812 626.031 419.837ZM616.043 409.85C617.368 409.85 618.638 409.324 619.574 408.387C620.511 407.451 621.037 406.181 621.037 404.856V394.869C621.037 393.545 620.511 392.274 619.574 391.338C618.638 390.402 617.368 389.875 616.043 389.875C614.719 389.875 613.449 390.402 612.512 391.338C611.576 392.274 611.05 393.545 611.05 394.869V404.856C611.05 406.181 611.576 407.451 612.512 408.387C613.449 409.324 614.719 409.85 616.043 409.85ZM616.043 419.837C614.719 419.837 613.449 420.363 612.512 421.3C611.576 422.236 611.05 423.507 611.05 424.831V434.818C611.05 436.143 611.576 437.413 612.512 438.349C613.449 439.286 614.719 439.812 616.043 439.812C617.368 439.812 618.638 439.286 619.574 438.349C620.511 437.413 621.037 436.143 621.037 434.818V424.831C621.037 423.507 620.511 422.236 619.574 421.3C618.638 420.363 617.368 419.837 616.043 419.837ZM855.837 577.469V524.721C855.837 512.474 848.649 500.84 835.163 490.913V459.353C835.163 441.464 817.342 425.341 787.325 415.768C787.232 410.963 786.175 406.226 784.216 401.837C784.953 401.95 790.294 403.149 790.925 403.079C792.149 403.055 793.323 402.583 794.223 401.751C795.122 400.92 795.686 399.787 795.806 398.568C795.926 397.348 795.595 396.128 794.875 395.136C794.155 394.145 793.096 393.452 791.9 393.19L783.392 391.488L787.389 387.491C787.853 387.028 788.22 386.477 788.471 385.871C788.722 385.266 788.851 384.616 788.851 383.961C788.851 383.305 788.722 382.656 788.471 382.05C788.22 381.444 787.853 380.894 787.389 380.43C786.925 379.966 786.375 379.598 785.769 379.347C785.163 379.097 784.514 378.967 783.858 378.967C783.203 378.967 782.553 379.097 781.948 379.347C781.342 379.598 780.791 379.966 780.328 380.43L776.331 384.427L774.63 375.919C774.348 374.642 773.577 373.526 772.481 372.811C771.386 372.097 770.054 371.84 768.772 372.097C767.49 372.354 766.359 373.103 765.624 374.185C764.888 375.266 764.606 376.592 764.837 377.88L765.982 383.603C745.539 374.28 723.166 386.181 715.624 407.143C659.106 409.666 616.842 431.822 616.842 459.353V490.914C603.356 500.84 596.167 512.474 596.167 524.722V577.469C532.299 629.52 632.335 672.929 726.001 671.533C819.695 672.927 919.687 629.525 855.837 577.469ZM606.155 578.931C628.173 607.958 707.92 623.137 761.245 614.313C763.368 617.037 766.211 619.112 769.451 620.307C772.691 621.501 776.201 621.766 779.584 621.072C782.966 620.378 786.088 618.753 788.597 616.38C791.105 614.007 792.901 610.98 793.781 607.64C817.612 600.817 835.554 590.813 845.85 578.971V589.027C845.789 589.274 845.746 589.525 845.723 589.778C844.046 607.841 819.809 624.585 782.43 633.48C749.996 640.796 716.452 641.754 683.654 636.303C647.853 631.347 606.266 611.256 606.156 589.043L606.155 578.931ZM740.027 571.386C739.909 570.224 740.026 569.05 740.374 567.935C740.721 566.821 741.291 565.788 742.049 564.899C742.807 564.011 743.737 563.285 744.783 562.766C745.829 562.247 746.97 561.946 748.136 561.88C749.302 561.814 750.469 561.985 751.567 562.383C752.664 562.781 753.67 563.398 754.523 564.195C755.376 564.993 756.059 565.955 756.529 567.024C757 568.092 757.249 569.245 757.262 570.413L757.261 574.732C751.56 575.419 745.816 575.912 740.03 576.209L740.027 571.386ZM845.85 554.683C845.85 571.308 826.317 587.261 794.416 597.07V577.508C817.929 570.686 835.646 560.752 845.85 549.012V554.683ZM845.85 524.721C845.85 541.349 826.315 557.307 794.416 567.12C794.245 565.918 794.328 564.695 794.662 563.528C794.995 562.361 795.572 561.278 796.352 560.35C797.133 559.421 798.101 558.667 799.193 558.139C800.285 557.61 801.477 557.317 802.69 557.28C805.153 557.314 807.599 556.859 809.886 555.941C812.173 555.023 814.255 553.661 816.012 551.933C817.769 550.206 819.166 548.147 820.122 545.876C821.078 543.605 821.574 541.167 821.581 538.703V530.556C830.672 522.515 835.341 514.176 835.163 503.852C838.27 506.42 840.821 509.596 842.659 513.184C844.496 516.773 845.582 520.699 845.85 524.721ZM732.837 398.086C757.956 374.433 793.383 409.874 769.733 434.982C758.554 446.162 721.84 454.871 716.815 451.099C712.962 445.971 721.655 409.265 732.837 398.086ZM711.635 417.35C706.834 432.391 697.751 463.389 722.26 461.793C746.137 459.956 779.718 450.775 786.113 425.851C869.995 456.507 804.107 503.099 726.002 501.849C607.525 500.075 587.107 428.79 711.635 417.35ZM726.002 511.837C770.614 511.837 808.081 499.563 825.175 481.528V505.849C824.616 509.571 823.286 513.136 821.27 516.316C819.255 519.495 816.599 522.219 813.472 524.314C812.886 524.782 812.412 525.375 812.087 526.051C811.762 526.726 811.594 527.466 811.594 528.216C811.228 532.628 813.01 541.557 809.051 544.803C808.258 545.639 807.294 546.294 806.226 546.723C805.157 547.153 804.008 547.347 802.858 547.293C800.427 547.299 798.022 547.785 795.779 548.723C793.537 549.661 791.501 551.031 789.789 552.757C788.077 554.482 786.723 556.529 785.803 558.778C784.883 561.028 784.416 563.437 784.429 565.868V603.02C784.415 604.168 784.172 605.302 783.713 606.354C783.255 607.407 782.59 608.357 781.758 609.148C780.927 609.939 779.945 610.556 778.871 610.962C777.797 611.368 776.653 611.555 775.506 611.512C774.359 611.468 773.232 611.196 772.192 610.71C771.152 610.224 770.219 609.535 769.45 608.683C768.68 607.831 768.089 606.834 767.711 605.75C767.333 604.666 767.176 603.517 767.249 602.371V570.413C767.256 567.617 766.628 564.856 765.415 562.337C764.201 559.819 762.432 557.608 760.241 555.871C757.441 553.693 754.08 552.355 750.549 552.014C747.018 551.674 743.463 552.344 740.298 553.946C737.133 555.549 734.489 558.018 732.675 561.067C730.86 564.115 729.949 567.616 730.048 571.162L730.048 586.891C730.013 589.146 729.093 591.297 727.486 592.88C725.879 594.463 723.714 595.35 721.459 595.35C719.203 595.35 717.038 594.463 715.431 592.88C713.824 591.297 712.904 589.146 712.87 586.891V565.868C712.849 563.059 712.196 560.291 710.96 557.768C709.724 555.246 707.936 553.034 705.729 551.297C703.522 549.56 700.952 548.341 698.21 547.732C695.468 547.123 692.624 547.139 689.889 547.778C685.832 548.897 682.252 551.312 679.695 554.655C677.138 557.997 675.744 562.084 675.725 566.292C675.667 567.425 675.386 568.535 674.898 569.559C674.409 570.583 673.724 571.5 672.88 572.258C672.036 573.016 671.05 573.6 669.98 573.975C668.909 574.351 667.775 574.511 666.643 574.447C665.51 574.383 664.402 574.096 663.381 573.602C662.359 573.108 661.446 572.416 660.693 571.568C659.94 570.72 659.362 569.731 658.993 568.659C658.623 567.586 658.469 566.451 658.54 565.319L658.539 538.854C658.54 537.886 658.259 536.939 657.73 536.129C657.202 535.318 656.45 534.678 655.565 534.287C637.772 526.362 627.75 516.6 626.829 505.854V481.527C643.923 499.563 681.39 511.837 726.002 511.837ZM702.882 575.538C696.51 574.981 690.257 574.178 684.123 573.13C686.55 567.817 684.819 559.313 692.169 557.502C693.439 557.194 694.763 557.177 696.041 557.452C697.319 557.728 698.518 558.289 699.549 559.094C700.579 559.899 701.414 560.926 701.992 562.099C702.569 563.272 702.873 564.561 702.882 565.868L702.882 575.538ZM616.842 503.852C616.84 520.081 628.132 531.9 648.552 542.055V564.022C612.507 550.502 592.595 527.592 616.842 503.852ZM651.526 575.644C654.014 579.715 657.996 582.65 662.62 583.824C667.244 584.998 672.143 584.317 676.272 581.927C685.068 583.63 693.952 584.846 702.882 585.57C702.73 588.075 703.087 590.586 703.931 592.95C704.775 595.314 706.089 597.482 707.793 599.325C709.498 601.167 711.557 602.646 713.848 603.671C716.14 604.696 718.615 605.247 721.124 605.29C723.634 605.334 726.126 604.868 728.451 603.923C730.776 602.977 732.886 601.57 734.653 599.787C736.42 598.004 737.807 595.882 738.732 593.549C739.657 591.215 740.1 588.719 740.034 586.21C745.809 585.92 751.551 585.443 757.261 584.778C757.32 586.251 757.091 603.812 757.46 604.719C697.237 613.958 599.015 591.991 606.155 549.017C615.407 559.668 630.861 568.85 651.526 575.644ZM726.002 661.547C639.246 661.724 558.006 628.514 596.178 590.297C608.434 669.466 843.525 669.503 855.827 590.297C893.981 628.497 812.819 661.719 726.002 661.547Z" fill="#FEBA13"/>
<path d="M758.884 413.032C759.659 413.015 760.419 412.809 761.097 412.431C761.776 412.054 762.351 411.517 762.775 410.867C763.199 410.217 763.457 409.473 763.529 408.701C763.6 407.928 763.482 407.15 763.184 406.433C762.887 405.716 762.419 405.083 761.821 404.588C761.223 404.093 760.514 403.751 759.755 403.593C758.995 403.434 758.208 403.463 757.462 403.677C756.716 403.891 756.034 404.284 755.474 404.821C754.815 405.499 754.369 406.356 754.192 407.285C754.014 408.214 754.113 409.175 754.476 410.049C754.838 410.923 755.449 411.671 756.233 412.201C757.016 412.731 757.938 413.02 758.884 413.032ZM741.885 409.623C742.827 409.615 743.746 409.331 744.529 408.805C745.311 408.28 745.921 407.536 746.285 406.666C746.648 405.797 746.748 404.84 746.572 403.914C746.396 402.988 745.953 402.134 745.296 401.459C744.741 400.888 744.054 400.463 743.295 400.224C742.536 399.984 741.73 399.936 740.948 400.084C740.166 400.233 739.433 400.573 738.815 401.074C738.197 401.575 737.712 402.222 737.406 402.957C737.099 403.691 736.979 404.49 737.057 405.282C737.135 406.074 737.408 406.834 737.851 407.495C738.295 408.155 738.896 408.696 739.6 409.067C740.304 409.438 741.089 409.629 741.885 409.623ZM735.067 423.212C736.009 423.206 736.929 422.922 737.712 422.397C738.495 421.871 739.106 421.127 739.469 420.257C739.833 419.387 739.932 418.429 739.755 417.503C739.579 416.577 739.134 415.723 738.475 415.048C737.92 414.509 737.24 414.114 736.497 413.898C735.754 413.681 734.969 413.649 734.211 413.805C733.452 413.961 732.743 414.3 732.146 414.792C731.548 415.284 731.08 415.915 730.781 416.629C730.483 417.344 730.364 418.12 730.434 418.891C730.504 419.662 730.762 420.405 731.184 421.054C731.606 421.702 732.181 422.238 732.858 422.615C733.534 422.991 734.292 423.196 735.067 423.212ZM745.296 435.409C746.207 436.278 747.421 436.754 748.679 436.737C749.937 436.72 751.138 436.21 752.024 435.317C752.911 434.424 753.411 433.219 753.419 431.961C753.426 430.703 752.94 429.492 752.065 428.589C751.155 427.72 749.94 427.243 748.682 427.261C747.424 427.278 746.223 427.788 745.337 428.681C744.451 429.574 743.95 430.779 743.943 432.037C743.935 433.295 744.421 434.506 745.296 435.409ZM758.884 421.82C758.011 422.723 757.528 423.933 757.539 425.188C757.55 426.444 758.054 427.645 758.942 428.533C759.83 429.421 761.031 429.924 762.287 429.935C763.543 429.945 764.752 429.462 765.655 428.589C766.528 427.685 767.011 426.476 767 425.22C766.989 423.964 766.485 422.763 765.597 421.875C764.709 420.987 763.507 420.484 762.252 420.474C760.996 420.463 759.786 420.947 758.884 421.82ZM731.707 440.211C732.652 440.198 733.573 439.908 734.355 439.378C735.138 438.848 735.748 438.1 736.111 437.226C736.473 436.353 736.572 435.393 736.395 434.464C736.219 433.535 735.774 432.679 735.116 432C734.556 431.456 733.872 431.057 733.123 430.839C732.374 430.62 731.582 430.588 730.818 430.745C730.054 430.903 729.339 431.245 728.738 431.742C728.136 432.238 727.665 432.875 727.366 433.596C727.066 434.316 726.948 435.099 727.021 435.876C727.094 436.653 727.356 437.401 727.784 438.053C728.212 438.706 728.793 439.243 729.477 439.62C730.161 439.996 730.926 440.199 731.707 440.211Z" fill="#FEBA13"/>
</svg>
