<svg width="140" height="140" viewBox="0 0 140 140" fill="none" xmlns="http://www.w3.org/2000/svg">
<g clip-path="url(#clip0_0_1)">
<path d="M21.1707 35.4162C20.8251 35.114 20.6068 34.6808 20.5634 34.2106C20.5199 33.7403 20.6547 33.2711 20.9385 32.9047C24.4604 28.6261 28.8217 25.199 33.7229 22.8585C33.9256 22.7482 34.1472 22.6817 34.3747 22.6629C34.6022 22.6441 34.831 22.6735 35.0475 22.7492C35.264 22.8249 35.4639 22.9455 35.6354 23.1037C35.8068 23.262 35.9463 23.4548 36.0456 23.6707C36.1449 23.8866 36.202 24.1212 36.2135 24.3607C36.2251 24.6002 36.1908 24.8396 36.1127 25.065C36.0347 25.2903 35.9144 25.4969 35.7591 25.6725C35.6037 25.8482 35.4164 25.9893 35.2083 26.0876C30.752 28.2065 26.7828 31.31 23.5712 35.1866C23.2837 35.5498 22.8713 35.7791 22.4238 35.8248C21.9763 35.8704 21.5297 35.7288 21.181 35.4305L21.1707 35.4162ZM112.43 9.32855C112.883 9.32855 113.317 9.13955 113.637 8.80311C113.958 8.46668 114.138 8.01038 114.138 7.5346V1.79395C114.138 1.31817 113.958 0.861868 113.637 0.525437C113.317 0.189005 112.883 0 112.43 0C111.977 0 111.543 0.189005 111.223 0.525437C110.903 0.861868 110.723 1.31817 110.723 1.79395V7.5346C110.723 8.01038 110.903 8.46668 111.223 8.80311C111.543 9.13955 111.977 9.32855 112.43 9.32855ZM116.473 13.634H119.205C119.658 13.634 120.092 13.445 120.412 13.1086C120.732 12.7722 120.912 12.3159 120.912 11.8401C120.912 11.3643 120.732 10.908 120.412 10.5716C120.092 10.2351 119.658 10.0461 119.205 10.0461H116.473C116.02 10.0461 115.586 10.2351 115.266 10.5716C114.946 10.908 114.766 11.3643 114.766 11.8401C114.766 12.3159 114.946 12.7722 115.266 13.1086C115.586 13.445 116.02 13.634 116.473 13.634ZM112.376 23.612C112.828 23.612 113.263 23.423 113.583 23.0866C113.903 22.7501 114.083 22.2938 114.083 21.818V16.0774C114.083 15.6016 113.903 15.1453 113.583 14.8089C113.263 14.4725 112.828 14.2834 112.376 14.2834C111.923 14.2834 111.489 14.4725 111.168 14.8089C110.848 15.1453 110.668 15.6016 110.668 16.0774V21.818C110.668 22.2938 110.848 22.7501 111.168 23.0866C111.489 23.423 111.923 23.612 112.376 23.612ZM105.615 13.5659H108.346C108.799 13.5659 109.233 13.3769 109.554 13.0404C109.874 12.704 110.054 12.2477 110.054 11.7719C110.054 11.2961 109.874 10.8398 109.554 10.5034C109.233 10.167 108.799 9.97796 108.346 9.97796H105.615C105.162 9.97796 104.728 10.167 104.407 10.5034C104.087 10.8398 103.907 11.2961 103.907 11.7719C103.907 12.2477 104.087 12.704 104.407 13.0404C104.728 13.3769 105.162 13.5659 105.615 13.5659ZM140 100.472C140 123.747 111.221 140 70.0205 140C28.8195 140 0 123.747 0 100.472C0 89.8734 5.87317 80.5736 16.9263 73.5161C19.4415 64.3205 22.4849 55.2935 26.04 46.4849C26.7502 40.1056 32.661 34.4546 42.6078 30.6335C42.1658 29.8452 42.0347 28.9065 42.2424 28.0179C42.4169 27.473 42.7532 27.0014 43.202 26.6725C41.2249 23.9851 39.6849 21.0215 40.6137 19.1199C40.7798 18.7847 41.0127 18.491 41.2966 18.2588C40.1151 15.7007 39.3434 12.9272 40.4668 11.345C40.7551 10.9341 41.1516 10.621 41.6073 10.4444C41.5998 9.6078 41.7873 8.78199 42.1533 8.03902C42.5194 7.29605 43.0529 6.65849 43.7073 6.18196C44.406 5.85758 45.1728 5.72905 45.9328 5.80891C46.6928 5.88877 47.4202 6.17429 48.0439 6.63762C48.2945 6.43932 48.575 6.28651 48.8737 6.18555C50.301 5.72271 51.8512 6.35776 53.8044 8.26653C54.295 7.80194 54.9059 7.50098 55.5595 7.40185C56.3851 7.39024 57.2008 7.59076 57.9358 7.98595C58.6707 8.38115 59.3027 8.95906 59.7766 9.6694C60.3958 9.16244 61.1723 8.91561 61.9551 8.97693C63.8229 9.15992 65.2229 11.0077 66.3941 14.9113C66.9873 14.8654 67.5804 15.0012 68.1015 15.3024C68.9487 15.8296 69.6736 16.5485 70.2235 17.4068C70.7734 18.2651 71.1345 19.2413 71.2805 20.2645C74.6268 17.4516 78.1337 14.8826 81.06 12.7299C82.0008 11.8256 83.169 11.2242 84.4256 10.9972C85.6823 10.7701 86.9745 10.9269 88.1488 11.449C91.8673 13.5192 93.0044 20.3147 93.2912 29.2019C105.994 33.0087 113.653 39.632 114.042 47.1702C117.566 55.7387 120.579 64.5293 123.063 73.491C134.123 80.5628 140 89.8662 140 100.472ZM15.7654 97.7919C15.7654 111.164 40.6137 122.462 70.0205 122.462C99.4273 122.462 124.259 111.168 124.272 97.7991L124.013 95.4526C123.985 95.3146 123.972 95.1738 123.975 95.0328V94.9072C122.846 86.5546 121.029 78.3205 118.546 70.2978C117.679 71.2665 117.504 73.2255 117.419 76.5192C117.327 80.0102 117.224 83.9641 114.568 86.0487C113.531 86.9941 112.211 87.5271 110.838 87.5546C109.465 87.5822 108.126 87.1026 107.056 86.1994C105.874 85.4495 105.348 85.184 104.583 85.4316C102.733 86.0308 102.296 90.1712 101.79 94.9646C101.633 96.45 101.466 98.0215 101.244 99.6289C101.215 101.503 100.655 103.326 99.6367 104.866C98.6181 106.405 97.1866 107.591 95.5244 108.272C95.042 108.407 94.545 108.476 94.0459 108.477C93.0168 108.441 92.0096 108.156 91.1024 107.644C90.1951 107.133 89.4123 106.408 88.8146 105.527C87.6004 103.68 86.8156 101.559 86.5234 99.3347C85.8917 96.2706 85.4 93.8452 82.2893 92.306C80.121 91.2296 78.3249 92.9231 75.6376 95.8544C73.418 98.2799 70.9049 101.025 67.6985 100.056C66.552 99.6983 65.5135 99.0337 64.685 98.1273C63.8566 97.221 63.2665 96.1039 62.9727 94.8857C62.7708 93.9666 62.3491 93.1167 61.7474 92.4167C61.1457 91.7166 60.3839 91.1895 59.5341 90.8852C57.7551 90.1891 56.2288 91.3947 53.8795 93.3967C51.2844 95.6248 48.0746 98.4198 43.6766 96.6258C39.579 94.961 37.3356 89.694 35.1741 84.5956C33.6512 81.0077 31.9302 76.9426 30.1273 76.4188C28.7273 76.0133 28.2015 76.4546 26.839 77.7714C25.8379 78.9551 24.5549 79.8375 23.1219 80.3281C21.6889 80.8186 20.1575 80.8996 18.6849 80.5628C17.545 85.2638 16.6671 90.0306 16.0556 94.839C16.059 94.894 16.059 94.9491 16.0556 95.0041C16.0553 95.1244 16.0451 95.2445 16.0249 95.3629L15.7585 97.6986L15.7654 97.7919ZM104.358 61.6187L93.1239 80.9395C92.8811 81.3297 92.5032 81.6052 92.0704 81.7077C91.6375 81.8102 91.1837 81.7317 90.8051 81.4886C90.4264 81.2456 90.1527 80.8573 90.0418 80.4058C89.931 79.9544 89.9917 79.4754 90.2112 79.0702L98.6829 64.4818C96.7419 65.2863 94.7607 65.9798 92.7483 66.5592L82.7434 83.0456C82.6266 83.2522 82.4715 83.4321 82.2873 83.5746C82.1031 83.717 81.8936 83.8191 81.6711 83.8748C81.4486 83.9305 81.2177 83.9386 80.9922 83.8988C80.7666 83.8589 80.551 83.7718 80.3581 83.6427C80.1652 83.5136 79.999 83.3451 79.8693 83.1472C79.7395 82.9492 79.649 82.7259 79.603 82.4905C79.557 82.2551 79.5565 82.0124 79.6014 81.7768C79.6464 81.5412 79.736 81.3175 79.8649 81.1189L87.9541 67.7863C82.0476 69.0281 76.0373 69.6436 70.0137 69.6233C67.6541 69.6233 65.3629 69.5085 63.1161 69.3398H63.0717C63.0307 69.3398 62.9932 69.3398 62.9522 69.3183C45.1961 67.9549 31.2951 61.5505 27.1771 53.0328C24.4707 60.2521 22.0993 67.6052 20.0712 75.0661C19.8902 75.7371 19.7298 76.4224 19.542 77.1041C20.4616 77.2752 21.4081 77.1856 22.2838 76.8444C23.1595 76.5032 23.9328 75.9228 24.5239 75.163C25.2926 74.1783 26.3165 73.4488 27.4716 73.063C28.6267 72.6771 29.8634 72.6513 31.0322 72.9887C34.3888 73.961 36.2839 78.4352 38.2917 83.164C40.0776 87.387 42.1093 92.1768 44.899 93.3034C47.32 94.2829 49.0581 92.9195 51.7283 90.634C54.2073 88.5064 57.0141 86.0989 60.7156 87.5126C62.0233 87.988 63.2027 88.7877 64.1537 89.8438C65.1048 90.9 65.7995 92.1815 66.179 93.5797C66.8415 95.3521 67.2034 96.1558 68.6785 96.6079C69.8907 96.9667 71.5024 95.223 73.2098 93.3788C75.7502 90.6125 79.2298 86.8201 83.7746 89.0733C85.4865 89.9747 86.9482 91.3245 88.0189 92.9924C89.0895 94.6604 89.7329 96.5902 89.8868 98.5956C90.0963 100.282 90.6571 101.899 91.5293 103.332C91.8499 103.883 92.3218 104.32 92.883 104.586C93.4442 104.851 94.0685 104.931 94.6741 104.817C96.2415 104.376 97.4741 102.198 97.8907 99.1338C98.1093 97.5515 98.2698 96.0195 98.42 94.5664C99.062 88.5172 99.6117 83.2932 103.603 82.0087C104.501 81.762 105.441 81.7353 106.351 81.9306C107.26 82.1259 108.115 82.5381 108.848 83.1353C110.317 84.0682 110.931 84.4557 112.557 83.1784C113.888 82.1343 113.96 79.2317 114.035 76.4295C114.127 72.8022 114.271 68.4464 117.474 66.7207C116.031 62.1715 114.459 57.669 112.758 53.2194C110.757 56.786 107.847 59.6949 104.358 61.6187ZM64.499 32.4382L64.4478 32.5136C63.5558 33.5302 62.9611 34.7951 62.7347 36.1572C62.5082 37.5193 62.6596 38.9211 63.1707 40.1953C63.9441 42.0044 65.1965 43.5416 66.7787 44.6231C68.3608 45.7047 70.2057 46.285 72.0932 46.2947C73.5708 46.3895 75.0239 46.7361 76.3956 47.3209C76.4946 47.3659 76.5886 47.4225 76.6756 47.4895C77.9856 48.51 79.5242 49.1578 81.1424 49.3703C82.7605 49.5827 84.4035 49.3526 85.9122 48.7022C87.3404 47.7037 88.4751 46.3062 89.1887 44.6671C89.9023 43.028 90.1666 41.2122 89.9517 39.4239C90.0268 32.0256 90.1873 16.6335 86.5644 14.6171C86.3352 14.4943 86.0807 14.4327 85.8234 14.4377C84.7985 14.5695 83.8282 14.9967 83.02 15.672C77.7102 19.5541 68.5044 26.2886 64.499 32.4382ZM43.3659 13.9247C43.8146 15.5308 44.456 17.0704 45.2746 18.5064C45.433 18.7937 45.5124 19.1216 45.504 19.4535C45.4956 19.7855 45.3996 20.1084 45.2268 20.3865C45.0832 20.6185 44.8903 20.8124 44.6634 20.9531C44.4366 21.0938 44.1818 21.1774 43.919 21.1973C44.8997 23.1288 46.1115 24.9205 47.5249 26.529C47.7467 26.7892 47.8914 27.1119 47.9411 27.4574C47.9909 27.8028 47.9435 28.156 47.8049 28.4736C47.6706 28.7946 47.448 29.0659 47.1656 29.2527C46.8831 29.4394 46.554 29.533 46.2205 29.5213H45.8415C46.0426 29.8047 46.258 30.0766 46.4868 30.3357L46.538 30.4003C47.673 31.6674 48.9128 32.8261 50.2429 33.8626C50.5021 34.0646 50.7015 34.3397 50.818 34.6559C50.9345 34.9721 50.9633 35.3165 50.9011 35.6492C50.8389 35.9819 50.6883 36.2893 50.4666 36.5357C50.245 36.7821 49.9614 36.9575 49.6488 37.0415L49.5702 37.0595C50.5939 38.1543 51.7623 39.0883 53.0395 39.8329C53.2516 39.9606 53.4351 40.1346 53.5777 40.3432C53.7202 40.5518 53.8185 40.7901 53.8659 41.042C53.9142 41.2945 53.9103 41.555 53.8543 41.8057C53.7983 42.0564 53.6916 42.2916 53.5415 42.4951C53.1677 42.9634 52.848 43.4765 52.5888 44.0236C55.5559 44.4339 58.5588 44.4749 61.5351 44.1456C61.0462 43.4561 60.5958 42.7373 60.1863 41.9928C59.3724 40.3375 59.0197 38.4744 59.1689 36.6178C59.3181 34.7612 59.9631 32.9866 61.0298 31.4982C58.0112 27.0062 50.7415 18.7899 50.6595 18.7037C50.5066 18.5313 50.3875 18.3289 50.309 18.1081C50.2306 17.8873 50.1943 17.6524 50.2022 17.4168C50.2101 17.1813 50.2621 16.9497 50.3553 16.7353C50.4484 16.5208 50.5808 16.3278 50.7449 16.1671C50.909 16.0064 51.1016 15.8813 51.3118 15.7988C51.5219 15.7164 51.7455 15.6783 51.9696 15.6866C52.1938 15.6949 52.4142 15.7496 52.6183 15.8474C52.8224 15.9452 53.0061 16.0843 53.159 16.2568C53.4629 16.6156 59.6741 23.6192 63.1024 28.4054C63.5498 27.8314 64.0346 27.2645 64.5366 26.6976C64.5818 26.6357 64.6309 26.577 64.6834 26.5218C65.7932 25.2804 67.0156 24.0605 68.3029 22.8657C67.7907 19.2778 66.8278 18.6463 66.64 18.5602C66.4627 18.4841 66.2641 18.4841 66.0868 18.5602C65.8595 18.7066 65.6028 18.7949 65.3372 18.8183C65.0715 18.8416 64.8044 18.7993 64.5571 18.6947C64.3098 18.59 64.0893 18.426 63.9132 18.2158C63.7371 18.0055 63.6103 17.7549 63.5429 17.4839C62.4434 13.103 61.5112 12.5146 61.4942 12.5074C61.6546 12.6079 61.3371 13.0815 61.221 13.3398C61.0905 13.6293 60.8888 13.8767 60.6366 14.0565C60.3844 14.2363 60.091 14.3419 59.7868 14.3624C59.4838 14.3775 59.1822 14.3101 58.9112 14.1668C58.6402 14.0235 58.409 13.8091 58.24 13.5443C56.7615 11.1297 55.9727 10.9539 55.9659 10.9539C55.959 10.9539 55.7473 11.3593 55.6585 11.6392C55.5626 11.937 55.3949 12.2036 55.1716 12.413C54.9484 12.6224 54.6773 12.7674 54.3849 12.8339C54.0925 12.8997 53.7887 12.8836 53.5041 12.7873C53.2194 12.6909 52.9638 12.5177 52.7629 12.285C52.0095 11.315 51.1153 10.4759 50.1132 9.79856C50.0177 10.0622 49.8645 10.2984 49.6659 10.4881C49.4674 10.6778 49.229 10.8157 48.9702 10.8904C48.7114 10.9652 48.4395 10.9749 48.1765 10.9186C47.9135 10.8623 47.6669 10.7416 47.4566 10.5664C45.9132 9.29626 45.2815 9.32855 45.2849 9.3429C44.982 10.1769 44.8777 11.076 44.981 11.9621C45.002 12.2035 44.9762 12.4469 44.9052 12.6775C44.8342 12.9082 44.7194 13.1213 44.5678 13.3041C44.4162 13.4869 44.231 13.6354 44.0232 13.7409C43.8154 13.8463 43.5895 13.9064 43.359 13.9175L43.3659 13.9247ZM29.3044 47.7622C29.3044 54.9954 39.2854 61.3962 53.2683 64.3204L63.198 51.9528C63.3391 51.7616 63.5156 51.6022 63.7168 51.4845C63.918 51.3667 64.1398 51.293 64.3689 51.2676C64.5979 51.2423 64.8295 51.2659 65.0496 51.3371C65.2697 51.4082 65.4739 51.5255 65.6498 51.6817C65.8257 51.8379 65.9697 52.0299 66.0731 52.2462C66.1765 52.4624 66.2372 52.6984 66.2516 52.9399C66.2659 53.1815 66.2336 53.4235 66.1566 53.6516C66.0796 53.8797 65.9594 54.089 65.8034 54.267L57.1644 65.0308C58.8717 65.2927 60.579 65.5115 62.3649 65.673L68.279 58.5331C68.4234 58.3462 68.6022 58.1918 68.8046 58.0791C69.007 57.9663 69.2289 57.8975 69.4571 57.8768C69.6853 57.856 69.9152 57.8837 70.133 57.9583C70.3508 58.0328 70.5521 58.1526 70.725 58.3106C70.8978 58.4686 71.0386 58.6615 71.139 58.8779C71.2394 59.0942 71.2973 59.3296 71.3093 59.57C71.3213 59.8104 71.2871 60.0508 71.2089 60.277C71.1306 60.5032 71.0098 60.7106 70.8537 60.8867L66.6673 65.9421C67.7771 65.9851 68.8902 66.021 70.0205 66.021C92.0688 66.021 110.696 57.6576 110.696 47.7622C110.696 41.9426 104.081 36.3921 93.3595 32.9657C93.38 35.0574 93.3595 37.2281 93.3595 39.4634C93.2741 47.1773 90.102 50.4818 87.4522 51.9026C85.9421 52.6958 84.2746 53.1016 82.5863 53.0866C79.8198 53.051 77.1247 52.1587 74.8385 50.5213C73.8263 50.1503 72.7705 49.927 71.7005 49.8575C69.2413 49.7407 66.8564 48.9355 64.7927 47.5254C61.1937 47.755 58.3663 47.9165 56.1981 47.9165C52.1244 47.9165 50.26 47.3603 49.4268 45.6991C49.1736 45.0871 49.0751 44.4167 49.1409 43.7529C49.2068 43.0891 49.4346 42.4544 49.8024 41.9103C47.8151 40.4931 45.6673 38.4444 45.9371 36.3311C45.9901 35.9165 46.1301 35.5195 46.3468 35.1686C45.7984 34.6741 45.272 34.1533 44.7693 33.6079C35.082 37.1133 29.3044 42.3516 29.3044 47.7622ZM136.585 100.472C136.585 92.2199 132.396 84.7499 124.416 78.7114C125.778 84.1464 126.793 89.6709 127.455 95.2481C127.592 96.0127 127.668 96.7879 127.683 97.5659V97.6269C127.692 97.7463 127.692 97.8662 127.683 97.9856C127.461 113.733 102.214 126.039 70.0171 126.039C37.8205 126.039 12.6341 113.78 12.3541 98.0574C12.337 97.9157 12.337 97.7722 12.3541 97.6304V97.4618C12.3754 96.759 12.4451 96.0587 12.5624 95.3665C13.221 89.7483 14.2328 84.182 15.5912 78.7043C7.60439 84.7427 3.41463 92.1984 3.41463 100.472C3.41463 121.641 30.8034 136.412 70.0205 136.412C109.238 136.412 136.585 121.634 136.585 100.472ZM124.388 54.9954C125.959 59.4007 127.402 63.8554 128.715 68.3531C128.822 68.7212 129.038 69.0433 129.333 69.272C129.627 69.5007 129.984 69.6239 130.35 69.6233C130.617 69.6233 130.881 69.5575 131.119 69.431C131.358 69.3046 131.565 69.1211 131.724 68.8953C131.883 68.6695 131.989 68.4077 132.034 68.131C132.079 67.8542 132.061 67.5702 131.982 67.3019C130.647 62.7347 129.182 58.2107 127.588 53.736C127.429 53.2902 127.108 52.929 126.696 52.7319C126.283 52.5347 125.813 52.5178 125.389 52.6848C124.965 52.8518 124.621 53.189 124.433 53.6224C124.245 54.0557 124.229 54.5496 124.388 54.9954ZM82.6342 30.5582C82.6342 30.913 82.7343 31.2598 82.9219 31.5548C83.1095 31.8499 83.3761 32.0798 83.6881 32.2156C84.0001 32.3514 84.3434 32.3869 84.6745 32.3177C85.0057 32.2484 85.3099 32.0776 85.5487 31.8267C85.7875 31.5758 85.9501 31.2561 86.016 30.9082C86.0819 30.5602 86.048 30.1995 85.9188 29.8717C85.7896 29.5439 85.5708 29.2637 85.29 29.0666C85.0092 28.8694 84.6791 28.7642 84.3415 28.7642C83.8887 28.7642 83.4544 28.9532 83.1342 29.2897C82.814 29.6261 82.6342 30.0824 82.6342 30.5582ZM66.8278 35.8324C66.8278 36.1872 66.9279 36.534 67.1155 36.8291C67.3031 37.1241 67.5698 37.354 67.8818 37.4898C68.1937 37.6256 68.537 37.6611 68.8682 37.5919C69.1994 37.5227 69.5036 37.3518 69.7424 37.1009C69.9812 36.85 70.1438 36.5304 70.2096 36.1824C70.2755 35.8344 70.2417 35.4737 70.1125 35.1459C69.9833 34.8181 69.7644 34.5379 69.4837 34.3408C69.2029 34.1437 68.8728 34.0384 68.5351 34.0384C68.3095 34.0361 68.0856 34.0807 67.8765 34.1698C67.6674 34.2589 67.4772 34.3907 67.3168 34.5575C67.1565 34.7243 67.0292 34.9229 66.9423 35.1417C66.8554 35.3605 66.8107 35.5953 66.8107 35.8324H66.8278ZM76.2659 31.4264C76.6035 31.4264 76.9336 31.3212 77.2144 31.1241C77.4952 30.927 77.714 30.6468 77.8432 30.319C77.9724 29.9912 78.0062 29.6305 77.9404 29.2825C77.8745 28.9345 77.7119 28.6149 77.4731 28.364C77.2343 28.1131 76.9301 27.9422 76.5989 27.873C76.2677 27.8038 75.9245 27.8393 75.6125 27.9751C75.3005 28.1109 75.0339 28.3408 74.8463 28.6358C74.6587 28.9308 74.5585 29.2777 74.5585 29.6325C74.5585 30.1052 74.7361 30.5588 75.0526 30.8947C75.3691 31.2306 75.7989 31.4217 76.2488 31.4264H76.2659ZM123.046 48.8924C123.384 48.8924 123.714 48.7871 123.995 48.59C124.276 48.3929 124.494 48.1127 124.624 47.7849C124.753 47.4571 124.787 47.0964 124.721 46.7484C124.655 46.4004 124.492 46.0808 124.254 45.8299C124.015 45.579 123.711 45.4081 123.379 45.3389C123.048 45.2697 122.705 45.3052 122.393 45.441C122.081 45.5768 121.814 45.8067 121.627 46.1017C121.439 46.3968 121.339 46.7436 121.339 47.0984C121.339 47.5693 121.515 48.0213 121.829 48.3569C122.144 48.6925 122.571 48.8848 123.019 48.8924H123.046ZM19.122 43.2988C19.4596 43.2988 19.7897 43.1936 20.0705 42.9965C20.3513 42.7994 20.5701 42.5192 20.6993 42.1914C20.8285 41.8636 20.8623 41.5029 20.7965 41.1549C20.7306 40.8069 20.568 40.4872 20.3292 40.2364C20.0904 39.9855 19.7862 39.8146 19.455 39.7454C19.1238 39.6762 18.7806 39.7117 18.4686 39.8475C18.1566 39.9833 17.89 40.2132 17.7024 40.5082C17.5148 40.8032 17.4146 41.1501 17.4146 41.5049C17.4146 41.9807 17.5945 42.437 17.9147 42.7734C18.2349 43.1098 18.6691 43.2988 19.122 43.2988ZM83.2454 24.4695C83.583 24.4695 83.9131 24.3643 84.1939 24.1672C84.4747 23.97 84.6935 23.6899 84.8227 23.3621C84.9519 23.0343 84.9858 22.6736 84.9199 22.3256C84.854 21.9776 84.6914 21.6579 84.4526 21.407C84.2139 21.1561 83.9096 20.9853 83.5784 20.9161C83.2473 20.8468 82.904 20.8824 82.592 21.0182C82.28 21.1539 82.0134 21.3839 81.8258 21.6789C81.6382 21.9739 81.538 22.3207 81.538 22.6755C81.538 22.9123 81.5827 23.1468 81.6693 23.3654C81.756 23.584 81.8829 23.7824 82.0429 23.9492C82.2029 24.1159 82.3927 24.2478 82.6015 24.3371C82.8102 24.4264 83.0337 24.4714 83.259 24.4695H83.2454ZM76.4161 37.4685C76.0784 37.4685 75.7483 37.5737 75.4676 37.7708C75.1868 37.9679 74.968 38.2481 74.8387 38.5759C74.7095 38.9037 74.6757 39.2644 74.7416 39.6124C74.8075 39.9604 74.9701 40.2801 75.2088 40.5309C75.4476 40.7818 75.7518 40.9527 76.083 41.0219C76.4142 41.0911 76.7575 41.0556 77.0695 40.9198C77.3814 40.784 77.6481 40.5541 77.8357 40.2591C78.0233 39.9641 78.1234 39.6172 78.1234 39.2624C78.1234 38.7891 77.9454 38.335 77.6282 37.999C77.311 37.6629 76.8802 37.4723 76.4298 37.4685H76.4161ZM84.3107 39.4203C83.9731 39.4203 83.643 39.5255 83.3622 39.7226C83.0814 39.9198 82.8626 40.1999 82.7334 40.5277C82.6042 40.8555 82.5703 41.2162 82.6362 41.5642C82.7021 41.9122 82.8647 42.2319 83.1035 42.4828C83.3422 42.7337 83.6465 42.9045 83.9777 42.9737C84.3088 43.043 84.6521 43.0074 84.9641 42.8716C85.2761 42.7359 85.5427 42.5059 85.7303 42.2109C85.9179 41.9159 86.0181 41.5691 86.0181 41.2142C86.0181 40.744 85.8425 40.2925 85.5289 39.957C85.2153 39.6215 84.7889 39.4288 84.3415 39.4203H84.3107Z" fill="#F3B312"/>
</g>
<defs>
<clipPath id="clip0_0_1">
<rect width="140" height="140" fill="white"/>
</clipPath>
</defs>
</svg>
