<svg width="300" height="300" viewBox="0 0 300 300" fill="none" xmlns="http://www.w3.org/2000/svg">
<g clip-path="url(#clip0_0_1)">
<path d="M297.867 241.994C293.179 218.566 272.438 201.562 248.547 201.562H243.612C242.916 174.806 236.354 148.165 224.387 124.232L218.522 112.5H225C227.591 112.5 229.687 110.401 229.687 107.812V107.339C240.372 105.161 248.437 95.6926 248.437 84.375C248.437 73.0574 240.372 63.5894 229.687 61.4113V60.9375C229.687 58.3488 227.591 56.25 225 56.25H192.187C191.446 56.25 190.718 56.3046 189.991 56.3613L178.368 40.1021C181.1 36.8434 182.812 32.7006 182.812 28.125C182.812 17.7864 174.403 9.375 164.062 9.375C153.722 9.375 145.312 17.7864 145.312 28.125C145.312 38.4636 153.722 46.875 164.062 46.875C166.43 46.875 168.675 46.3875 170.762 45.5835L180.298 58.9231C172.085 62.7754 166.043 70.4679 164.486 79.6875H150C147.409 79.6875 145.312 81.7863 145.312 84.375C145.312 86.9637 147.409 89.0625 150 89.0625H164.486C166.198 99.2005 173.335 107.493 182.812 110.859V191.531L174.591 220.312H140.625V154.022C148.69 151.926 154.687 144.648 154.687 135.938C154.687 125.599 146.278 117.188 135.937 117.188H103.125V56.25C103.125 53.6613 101.028 51.5625 98.4375 51.5625H4.6875C2.09656 51.5625 0 53.6613 0 56.25V150C0 152.589 2.09656 154.688 4.6875 154.688H36.2789C35.4215 155.204 34.5557 155.704 33.7189 156.262C15.5411 168.382 4.6875 188.66 4.6875 210.507V253.125C4.6875 255.714 6.78406 257.812 9.375 257.812H18.9877C21.3481 281.467 41.3618 300 65.625 300C89.8882 300 109.902 281.467 112.262 257.812H197.113C199.473 281.467 219.487 300 243.75 300C268.013 300 288.027 281.467 290.387 257.812H295.312C296.718 257.812 298.045 257.183 298.938 256.096C299.826 255.011 300.183 253.583 299.908 252.205L297.867 241.994ZM154.687 28.125C154.687 22.9546 158.894 18.75 164.062 18.75C169.231 18.75 173.437 22.9546 173.437 28.125C173.437 33.2954 169.231 37.5 164.062 37.5C158.894 37.5 154.687 33.2954 154.687 28.125ZM282.884 229.688H262.5C259.909 229.688 257.812 231.786 257.812 234.375C257.812 236.964 259.909 239.062 262.5 239.062H287.377C287.89 240.617 288.348 242.198 288.675 243.835L289.595 248.438H219.218L241.718 210.938H248.547C262.72 210.938 275.505 218.313 282.884 229.688ZM239.062 84.375C239.062 90.4778 235.132 95.6326 229.687 97.5738V71.1762C235.132 73.1174 239.062 78.2722 239.062 84.375ZM174.103 89.0625H192.187C194.778 89.0625 196.875 86.9637 196.875 84.375C196.875 81.7863 194.778 79.6875 192.187 79.6875H174.103C176.199 71.6237 183.475 65.625 192.187 65.625H220.312V103.125H192.187C183.475 103.125 176.199 97.1263 174.103 89.0625ZM135.937 126.562C141.106 126.562 145.312 130.767 145.312 135.938C145.312 141.108 141.106 145.312 135.937 145.312H103.125V126.562H135.937ZM9.375 145.312V60.9375H93.75V145.312H9.375ZM14.0625 210.507C14.0625 191.803 23.3551 174.44 38.9191 164.062C48.1201 157.928 58.8226 154.688 69.8822 154.688H131.25V225C131.25 227.589 133.347 229.688 135.937 229.688H178.125C180.217 229.688 182.057 228.3 182.634 226.289L192.009 193.476C192.128 193.057 192.187 192.622 192.187 192.188V112.5H208.04L216 128.426C227.829 152.078 234.169 178.512 234.37 204.959L208.282 248.438H121.875V210.938C121.875 190.26 105.052 173.438 84.375 173.438C53.9557 173.438 27.4867 190.582 14.0625 215.705V210.507ZM65.625 290.625C46.5385 290.625 30.7692 276.281 28.4506 257.812H102.799C100.481 276.281 84.7114 290.625 65.625 290.625ZM14.2181 248.438C16.6397 211.846 47.1817 182.812 84.375 182.812C99.884 182.812 112.5 195.428 112.5 210.938V248.438H14.2181ZM243.75 290.625C224.664 290.625 208.894 276.281 206.576 257.812H280.924C278.606 276.281 262.836 290.625 243.75 290.625ZM79.6875 117.188V112.5C79.6875 98.5911 69.5303 87.0406 56.25 84.7984V79.6875C56.25 77.0988 54.1534 75 51.5625 75C48.9716 75 46.875 77.0988 46.875 79.6875V84.7984C33.5947 87.0406 23.4375 98.5911 23.4375 112.5V117.188C20.8466 117.188 18.75 119.286 18.75 121.875C18.75 124.464 20.8466 126.562 23.4375 126.562H79.6875C82.2784 126.562 84.375 124.464 84.375 121.875C84.375 119.286 82.2784 117.188 79.6875 117.188ZM32.8125 117.188V112.5C32.8125 102.161 41.2216 93.75 51.5625 93.75C61.9034 93.75 70.3125 102.161 70.3125 112.5V117.188H32.8125ZM93.75 210.938C93.75 213.526 91.6534 215.625 89.0625 215.625H51.5625C48.9716 215.625 46.875 213.526 46.875 210.938C46.875 208.349 48.9716 206.25 51.5625 206.25H89.0625C91.6534 206.25 93.75 208.349 93.75 210.938ZM93.75 229.688C93.75 232.276 91.6534 234.375 89.0625 234.375H51.5625C48.9716 234.375 46.875 232.276 46.875 229.688C46.875 227.099 48.9716 225 51.5625 225H89.0625C91.6534 225 93.75 227.099 93.75 229.688ZM70.3125 4.6875C70.3125 2.09885 72.4091 0 75 0H131.25C133.841 0 135.937 2.09885 135.937 4.6875C135.937 7.27615 133.841 9.375 131.25 9.375H75C72.4091 9.375 70.3125 7.27615 70.3125 4.6875ZM46.875 23.4375C46.875 20.8488 48.9716 18.75 51.5625 18.75H79.6875C82.2784 18.75 84.375 20.8488 84.375 23.4375C84.375 26.0262 82.2784 28.125 79.6875 28.125H51.5625C48.9716 28.125 46.875 26.0262 46.875 23.4375ZM14.0625 23.4375C14.0625 20.8488 16.1591 18.75 18.75 18.75H28.125C30.7159 18.75 32.8125 20.8488 32.8125 23.4375C32.8125 26.0262 30.7159 28.125 28.125 28.125H18.75C16.1591 28.125 14.0625 26.0262 14.0625 23.4375Z" fill="#A60321"/>
</g>
<defs>
<clipPath id="clip0_0_1">
<rect width="300" height="300" fill="white"/>
</clipPath>
</defs>
</svg>
