<svg width="300" height="300" viewBox="0 0 300 300" fill="none" xmlns="http://www.w3.org/2000/svg">
<path d="M114.223 9.37512C105.557 9.37512 100.648 16.8437 98.4486 25.2324V32.8131H290.631V25.2324C290.631 16.5602 283.559 9.37512 274.892 9.37512H114.223ZM98.4486 42.1884V56.2512H290.631V42.1884H98.4486ZM98.4486 65.6262V120.129C98.4486 128.801 105.557 135.94 114.223 135.94H274.892C283.559 135.94 290.631 128.801 290.631 120.129V65.6262H98.4486ZM131.939 84.6513H158.728C164.311 84.6513 168.762 89.2995 168.762 94.8963V107.192C168.762 112.825 164.311 117.464 158.728 117.464H131.939C126.357 117.464 121.905 112.827 121.905 107.192V94.8963C121.905 89.2629 126.357 84.6513 131.939 84.6513ZM131.939 94.0266C131.587 94.0266 131.289 94.4163 131.289 94.8965V107.192C131.289 107.764 131.587 108.089 131.939 108.089H158.728C159.081 108.089 159.378 107.745 159.378 107.192V94.8965C159.378 94.3614 159.081 94.0266 158.728 94.0266H131.939ZM107.531 178.138C98.4486 178.138 82.6157 185.047 72.0627 190.452C73.8822 193.784 75.0107 197.546 75.0107 201.594V264.785C80.9804 263.745 87.0362 262.79 93.7793 262.533C99.5743 262.533 110.406 270.745 117.446 275.716C127.478 282.798 138.284 290.631 150.003 290.631C153.531 290.631 157.074 289.47 161.74 287.728C187.385 278.141 241.478 247.54 272.988 229.106C280.962 224.696 283.581 214.486 279.077 206.684C274.755 199.199 265.982 197.376 257.451 200.285L198.591 220.665C199.013 224.494 198.327 228.464 196.265 232.036C191.112 240.962 179.583 244.047 170.658 238.893L142.212 222.487C136.331 219.485 141.4 210.768 146.918 214.393L175.327 230.791C179.895 233.428 185.498 231.935 188.136 227.367C190.773 222.798 189.271 217.205 184.702 214.567C163.783 202.49 126.683 178.138 107.531 178.138ZM23.4654 187.513C15.5745 187.513 9.37518 193.893 9.37518 201.603V267.202C9.37518 274.881 15.5789 281.232 23.374 281.283H51.591C60.1505 281.283 65.6355 274.011 65.6355 267.193V201.594C65.6355 193.716 59.2633 187.513 51.6002 187.513H23.4654ZM32.8314 253.148C35.4204 253.148 37.5192 255.247 37.5192 257.836C37.5192 260.425 35.4204 262.524 32.8314 262.524C30.2427 262.524 28.1439 260.425 28.1439 257.836C28.1439 255.247 30.2427 253.148 32.8314 253.148Z" fill="#A60321"/>
</svg>
