<svg width="300" height="300" viewBox="0 0 300 300" fill="none" xmlns="http://www.w3.org/2000/svg">
<path d="M289.781 194.423L258.839 150.009L289.777 105.816C290.677 104.531 290.873 102.881 290.302 101.419C289.725 99.9563 288.459 98.8781 286.922 98.55L237.614 87.9234L235.997 38.9812C235.945 37.4953 235.195 36.1219 233.972 35.2781C232.744 34.4344 231.197 34.2234 229.786 34.7016L183.211 50.7141L153.755 11.2594C151.983 8.8875 148.008 8.8875 146.241 11.2594L116.784 50.7141L70.2094 34.7016C68.8031 34.2234 67.2516 34.425 66.0234 35.2781C64.8 36.1219 64.05 37.4953 63.9984 38.9812L62.3812 87.9141L13.0781 98.5406C11.5406 98.8734 10.275 99.9469 9.69843 101.409C9.12655 102.872 9.32343 104.522 10.2234 105.806L41.1516 150L10.2187 194.184C9.31874 195.469 9.12187 197.119 9.69374 198.581C10.2703 200.044 11.5359 201.122 13.0687 201.45L62.3812 212.081L63.9984 261.014C64.05 262.5 64.8 263.873 66.0234 264.717C67.2516 265.566 68.8031 265.772 70.2094 265.294L116.784 249.281L146.241 288.736C147.131 289.927 148.523 290.625 150 290.625C151.477 290.625 152.873 289.927 153.755 288.741L183.211 249.286L229.786 265.298C231.192 265.777 232.744 265.57 233.972 264.722C235.195 263.878 235.945 262.505 235.997 261.019L237.614 212.1L286.908 201.689C288.445 201.366 289.72 200.292 290.297 198.83C290.873 197.367 290.681 195.713 289.781 194.423ZM232.083 203.686C229.969 204.131 228.436 205.959 228.366 208.116L226.837 254.367L183.028 239.306C181.106 238.645 178.964 239.306 177.75 240.938L150 278.1L122.255 240.938C121.355 239.728 119.948 239.053 118.5 239.053C117.989 239.053 117.478 239.137 116.977 239.306L73.1672 254.363L71.6391 208.116C71.5687 205.969 70.0453 204.141 67.9406 203.691L21.9516 193.777L50.7187 152.686C51.8484 151.073 51.8484 148.927 50.7187 147.314L21.9516 106.219L67.9406 96.3094C70.0453 95.8547 71.5687 94.0313 71.6391 91.8844L73.1672 45.6328L116.977 60.6937C118.903 61.3547 121.036 60.6938 122.255 59.0625L150 21.9L177.745 59.0625C178.964 60.6938 181.102 61.35 183.023 60.6937L226.833 45.6375L228.361 91.8844C228.431 94.0313 229.955 95.8594 232.059 96.3094L278.048 106.219L249.281 147.314C248.156 148.922 248.152 151.069 249.277 152.681L278.044 193.978L232.083 203.686Z" fill="#A60321"/>
<path d="M150 70.3125C106.059 70.3125 70.3125 106.059 70.3125 150C70.3125 193.941 106.059 229.688 150 229.688C193.941 229.688 229.688 193.941 229.688 150C229.688 106.059 193.941 70.3125 150 70.3125ZM150 220.312C111.23 220.312 79.6875 188.77 79.6875 150C79.6875 111.23 111.23 79.6875 150 79.6875C188.77 79.6875 220.312 111.23 220.312 150C220.312 188.77 188.77 220.312 150 220.312Z" fill="#A60321"/>
<path d="M175.214 114.277L135.778 153.708L126.544 139.856C123.928 135.938 119.555 133.594 114.834 133.594C112.05 133.594 109.359 134.409 107.044 135.956C100.594 140.259 98.8406 149.006 103.144 155.456L121.894 183.581C124.242 187.102 128.002 189.356 132.22 189.778C132.68 189.82 133.139 189.844 133.594 189.844C137.348 189.844 140.883 188.381 143.536 185.723L195.098 134.161C197.756 131.503 199.219 127.973 199.219 124.214C199.219 120.455 197.756 116.925 195.103 114.272C189.792 108.966 180.52 108.966 175.214 114.277ZM188.47 127.533L136.908 179.095C136.022 179.981 134.845 180.469 133.594 180.469L133.13 180.445C131.728 180.305 130.477 179.555 129.694 178.383L110.944 150.258C109.509 148.111 110.095 145.191 112.247 143.756C113.02 143.245 113.911 142.973 114.834 142.973C116.409 142.973 117.872 143.756 118.744 145.059L131.152 163.669C131.93 164.841 133.195 165.595 134.587 165.731C135.994 165.881 137.372 165.375 138.366 164.381L181.842 120.905C183.609 119.138 186.698 119.133 188.47 120.909C189.356 121.791 189.844 122.967 189.844 124.223C189.844 125.48 189.356 126.647 188.47 127.533Z" fill="#A60321"/>
</svg>
