<svg width="310" height="310" viewBox="0 0 310 310" fill="none" xmlns="http://www.w3.org/2000/svg">
<path d="M154.935 5C138.101 5 121.834 10.1897 109.841 21.6594C97.8042 33.1727 90.8264 50.5299 90.8264 71.812C90.8264 96.0161 105.218 122.488 118.737 144.904C132.3 167.364 145.864 184.895 145.864 184.895C146.943 186.293 148.33 187.424 149.918 188.203C151.506 188.981 153.252 189.386 155.022 189.386C156.792 189.386 158.538 188.981 160.126 188.203C161.714 187.424 163.101 186.293 164.18 184.895C164.18 184.895 177.7 167.364 191.219 144.904C204.738 122.488 219.13 96.0597 219.13 71.812C219.13 50.5299 212.152 33.1727 200.159 21.6594C188.166 10.1897 171.856 5 154.935 5ZM154.978 50.6607C157.135 50.6607 159.271 51.075 161.264 51.8799C163.256 52.6847 165.066 53.8644 166.589 55.3512C168.112 56.838 169.319 58.6027 170.141 60.5443C170.962 62.4859 171.382 64.5662 171.376 66.6659C171.382 68.7657 170.962 70.846 170.141 72.7876C169.319 74.7292 168.112 76.4939 166.589 77.9807C165.066 79.4675 163.256 80.6471 161.264 81.452C159.271 82.2569 157.135 82.6712 154.978 82.6712C152.821 82.6712 150.685 82.2569 148.693 81.452C146.7 80.6471 144.891 79.4675 143.367 77.9807C141.844 76.4939 140.637 74.7292 139.816 72.7876C138.994 70.846 138.575 68.7657 138.58 66.6659C138.575 64.5662 138.994 62.4859 139.816 60.5443C140.637 58.6027 141.844 56.838 143.367 55.3512C144.891 53.8644 146.7 52.6847 148.693 51.8799C150.685 51.075 152.821 50.6607 154.978 50.6607ZM61.7815 117.778C59.1758 117.713 56.6245 118.528 54.5421 120.089C23.4911 142.593 5 175.345 5 210.102C5 246.256 25.0611 280.098 58.2926 302.689C59.5468 303.593 60.9704 304.236 62.4791 304.582C63.9878 304.927 65.5507 304.967 67.0751 304.699C68.5996 304.431 70.0544 303.861 71.3533 303.022C72.6523 302.183 73.7688 301.093 74.6367 299.816C75.5046 298.539 76.1061 297.101 76.4055 295.588C76.705 294.075 76.6963 292.517 76.38 291.008C76.0636 289.498 75.4461 288.067 74.564 286.8C73.6819 285.533 72.5533 284.455 71.2451 283.631C43.2468 264.616 28.0702 237.795 28.0702 210.102C28.0702 183.5 42.113 157.682 68.1923 138.755C70.224 137.373 71.7599 135.381 72.5764 133.069C73.393 130.757 73.4477 128.245 72.7325 125.9C72.0172 123.555 70.5695 121.499 68.5999 120.03C66.6303 118.561 64.2416 117.801 61.7815 117.778ZM247.782 118.868C245.382 119.002 243.084 119.878 241.207 121.374C239.33 122.87 237.968 124.911 237.311 127.215C236.653 129.518 236.733 131.968 237.539 134.225C238.345 136.481 239.837 138.43 241.808 139.802C267.887 158.772 281.93 184.546 281.93 211.149C281.93 238.362 267.277 264.747 240.107 283.718C238.859 284.582 237.795 285.683 236.975 286.957C236.154 288.231 235.593 289.654 235.325 291.144C235.056 292.634 235.085 294.162 235.409 295.641C235.733 297.12 236.347 298.521 237.214 299.764C238.082 301.006 239.187 302.067 240.466 302.884C241.745 303.701 243.173 304.26 244.669 304.527C246.164 304.795 247.698 304.766 249.183 304.443C250.667 304.121 252.073 303.509 253.321 302.645C285.593 280.054 305 246.692 305 211.149C305 176.435 286.378 143.77 255.327 121.223C253.168 119.579 250.497 118.745 247.782 118.868ZM94.577 150.704C92.3843 150.703 90.2364 151.323 88.3842 152.492C65.7501 166.055 51.1404 186.989 51.1404 210.146C51.1404 234.743 67.5818 256.679 92.5709 270.155C93.9127 270.948 95.4018 271.462 96.9484 271.666C98.4949 271.87 100.067 271.76 101.57 271.343C103.073 270.925 104.475 270.209 105.693 269.237C106.91 268.266 107.917 267.058 108.654 265.688C109.391 264.318 109.841 262.814 109.978 261.266C110.116 259.717 109.937 258.157 109.453 256.68C108.969 255.202 108.19 253.838 107.162 252.669C106.134 251.499 104.88 250.549 103.474 249.876C83.8923 239.278 74.2543 224.45 74.2543 210.146C74.2543 196.627 82.6712 182.758 100.203 172.248C102.425 171.001 104.17 169.056 105.167 166.718C106.164 164.379 106.356 161.778 105.714 159.319C105.072 156.86 103.632 154.682 101.617 153.123C99.6026 151.565 97.1273 150.715 94.577 150.704ZM214.987 151.838C212.493 151.952 210.104 152.867 208.176 154.446C206.247 156.026 204.884 158.184 204.29 160.6C203.696 163.015 203.903 165.557 204.88 167.845C205.857 170.134 207.552 172.046 209.71 173.295C227.242 183.805 235.746 197.717 235.746 211.149C235.746 225.105 226.587 239.583 207.922 250.137C206.603 250.885 205.444 251.884 204.512 253.077C203.58 254.271 202.894 255.635 202.491 257.093C202.089 258.551 201.979 260.074 202.167 261.574C202.355 263.074 202.838 264.523 203.588 265.838C204.339 267.152 205.341 268.306 206.539 269.234C207.737 270.163 209.107 270.847 210.571 271.248C212.034 271.649 213.562 271.759 215.068 271.571C216.574 271.383 218.029 270.902 219.348 270.155C243.247 256.635 258.816 235.135 258.816 211.149C258.816 188.035 244.25 167.102 221.616 153.539C219.634 152.303 217.323 151.738 214.987 151.838ZM119.348 175.824C117.91 175.853 116.49 176.149 115.161 176.696C107.555 179.461 100.626 183.818 94.8386 189.474C89.2553 194.929 86.0171 202.344 85.8112 210.146C85.8112 218.912 90.3467 226.718 96.5395 232.388C102.732 238.101 110.713 242.244 120.089 245.297C121.532 245.767 123.054 245.95 124.568 245.835C126.082 245.72 127.558 245.309 128.913 244.625C130.267 243.941 131.473 242.999 132.462 241.851C133.451 240.703 134.203 239.372 134.675 237.935C135.148 236.497 135.331 234.981 135.216 233.473C135.1 231.964 134.687 230.494 134.001 229.144C133.315 227.795 132.368 226.594 131.216 225.609C130.064 224.624 128.728 223.875 127.285 223.404C121.734 221.786 116.571 219.056 112.109 215.379C109.23 212.763 108.881 211.106 108.881 210.146C108.881 209.274 109.099 207.835 111.367 205.523C114.909 202.293 119.061 199.802 123.578 198.197C126.188 197.286 128.383 195.475 129.766 193.09C131.149 190.705 131.628 187.906 131.116 185.199C130.604 182.492 129.136 180.058 126.977 178.338C124.817 176.618 122.111 175.726 119.348 175.824ZM190.303 176.827C187.545 176.776 184.86 177.708 182.732 179.456C180.605 181.205 179.175 183.653 178.701 186.36C178.227 189.067 178.74 191.853 180.148 194.216C181.556 196.579 183.766 198.362 186.378 199.243C190.883 200.827 195.022 203.304 198.546 206.526C200.813 208.838 201.119 210.277 201.119 211.149C201.119 212.109 200.813 213.679 198.197 216.164C194.135 219.626 189.419 222.237 184.328 223.84C181.437 224.858 179.068 226.983 177.743 229.747C176.418 232.511 176.246 235.689 177.263 238.58C178.281 241.472 180.406 243.841 183.17 245.166C185.935 246.491 189.112 246.663 192.004 245.645C200.813 242.505 208.402 238.362 214.246 232.78C217.271 230.028 219.711 226.694 221.42 222.977C223.128 219.26 224.07 215.238 224.189 211.149C223.974 203.349 220.737 195.937 215.161 190.478C209.352 184.858 202.408 180.546 194.795 177.83C193.38 177.199 191.853 176.858 190.303 176.827Z" fill="#A60321"/>
</svg>
