<svg width="32" height="32" viewBox="0 0 32 32" fill="none" xmlns="http://www.w3.org/2000/svg">
<path d="M26.288 17.28L26.24 17.6832C25.9936 18.512 24.992 19.2608 23.488 19.8336L23.3088 19.904C21.44 20.5792 18.8576 20.9984 16 20.9984C13.1424 20.9984 10.56 20.5792 8.69441 19.9008L8.51521 19.84C7.01121 19.2672 6.00961 18.5152 5.76641 17.6864L5.71201 17.28C5.72802 16.8482 5.90763 16.4387 6.21441 16.1344C6.72365 16.4212 7.25949 16.6581 7.81441 16.8416L8.01281 16.9088C10.0512 17.5872 12.88 18.0064 16.0128 18.0064C19.1456 18.0064 21.9552 17.6 24 16.9184L24.1984 16.848C24.7523 16.6619 25.2879 16.4252 25.7984 16.1408C26.0982 16.446 26.2729 16.8524 26.288 17.28Z" stroke="#FEBA13" stroke-linecap="round" stroke-linejoin="round"/>
<path d="M27.264 14.3008L27.2 14.6944C27.0336 15.216 26.5376 15.7056 25.7856 16.1408C25.2751 16.4252 24.7395 16.6619 24.1856 16.848L23.9872 16.9184C21.9552 17.6 19.1264 18.0128 16 18.0128C12.8736 18.0128 10.0416 17.6 8.00001 16.9152L7.80161 16.848C7.24669 16.6645 6.71085 16.4276 6.20161 16.1408C5.44641 15.7088 4.95041 15.216 4.78401 14.6944L4.72321 14.3008C4.72321 13.44 5.60321 12.6528 7.08161 12.0224V12.0608C7.29281 12.8928 8.16321 13.6416 9.47201 14.2176L9.62881 14.2848C11.248 14.96 13.4944 15.3824 15.9808 15.3824C18.4672 15.3824 20.7104 14.96 22.3328 14.2848L22.4864 14.2176C23.7952 13.6416 24.6656 12.896 24.88 12.064V12.0256C26.384 12.6528 27.264 13.44 27.264 14.3008Z" stroke="#FEBA13" stroke-linecap="round" stroke-linejoin="round"/>
<path d="M21.4944 8.7392C23.5968 9.4176 24.96 10.4768 24.96 11.6672L24.9152 12.0256V12.064C24.7008 12.896 23.8336 13.6416 22.5216 14.2176L22.3712 14.288C20.7456 14.96 18.496 15.3824 16.016 15.3824C13.536 15.3824 11.2832 14.96 9.66079 14.2848L9.50719 14.2176C8.19519 13.6416 7.32479 12.8928 7.11359 12.0608V12.0224L7.03999 11.6672C7.03999 10.4768 8.39359 9.4272 10.496 8.7392M24.96 19.168L24.2304 25.6192C24.2304 28.1088 20.544 30.1248 16 30.1248C11.456 30.1248 7.76639 28.1088 7.76639 25.6192L7.03999 19.168L7.25439 19.2736C9.49439 20.3392 12.5728 20.9984 15.9904 20.9984C19.408 20.9984 22.496 20.3392 24.7232 19.2768L24.96 19.168Z" stroke="#FEBA13" stroke-linecap="round" stroke-linejoin="round"/>
<path d="M16 30.1248V20.9984" stroke="#FEBA13" stroke-linecap="round" stroke-linejoin="round"/>
<path d="M11.5648 29.4112V20.608" stroke="#FEBA13" stroke-linecap="round" stroke-linejoin="round"/>
<path d="M20.432 29.4112V20.608" stroke="#FEBA13" stroke-linecap="round" stroke-linejoin="round"/>
<path d="M19.792 7.95519C19.792 8.07359 19.792 8.18559 19.776 8.30079C19.6892 9.24226 19.2539 10.1174 18.5554 10.7545C17.8568 11.3916 16.9455 11.7448 16 11.7448C15.0545 11.7448 14.1432 11.3916 13.4446 10.7545C12.7461 10.1174 12.3108 9.24226 12.224 8.30079C12.224 8.18559 12.208 8.07359 12.208 7.95519C12.208 6.94949 12.6075 5.98498 13.3187 5.27384C14.0298 4.56271 14.9943 4.16319 16 4.16319C17.0057 4.16319 17.9702 4.56271 18.6814 5.27384C19.3925 5.98498 19.792 6.94949 19.792 7.95519Z" stroke="#FEBA13" stroke-linecap="round" stroke-linejoin="round"/>
<path d="M16 5.792L17.2384 1.8752" stroke="#FEBA13" stroke-linecap="round" stroke-linejoin="round"/>
</svg>
