<svg width="24" height="24" viewBox="0 0 24 24" fill="none" xmlns="http://www.w3.org/2000/svg">
<g clip-path="url(#clip0_0_1)">
<path d="M18.9 6.90375C18.9 5.07376 18.173 3.31872 16.879 2.02472C15.585 0.730716 13.83 0.00375366 12 0.00375366C10.17 0.00375366 8.41497 0.730716 7.12097 2.02472C5.82697 3.31872 5.10001 5.07376 5.10001 6.90375C5.10001 10.7138 12 20.3475 12 20.3475C12 20.3475 18.9 10.7138 18.9 6.90375ZM7.50001 6.90375C7.50001 6.01374 7.76393 5.14371 8.25839 4.40369C8.75286 3.66367 9.45566 3.08689 10.2779 2.7463C11.1002 2.4057 12.005 2.31659 12.8779 2.49022C13.7508 2.66385 14.5527 3.09244 15.182 3.72177C15.8113 4.35111 16.2399 5.15293 16.4135 6.02585C16.5872 6.89876 16.4981 7.80356 16.1575 8.62583C15.8169 9.4481 15.2401 10.1509 14.5001 10.6454C13.7601 11.1398 12.89 11.4038 12 11.4038C10.8065 11.4038 9.66194 10.9296 8.81803 10.0857C7.97411 9.24182 7.50001 8.09723 7.50001 6.90375Z" fill="#FEBA13"/>
<path d="M15.4725 16.125C14.955 16.9687 14.4525 17.7487 14.01 18.4162C15.885 18.6712 17.1975 19.2712 17.1975 19.9762C17.1975 20.9062 14.8725 21.6637 12 21.6637C9.1275 21.6637 6.8025 20.9137 6.8025 19.9762C6.8025 19.2675 8.1225 18.6675 9.99375 18.4162C9.55125 17.7487 9.04875 16.965 8.53125 16.1212C3.99375 16.635 0.716248 18.1575 0.716248 19.9612C0.716248 22.1925 5.7675 24 12 24C18.2325 24 23.2837 22.1925 23.2837 19.9612C23.2837 18.1575 20.0062 16.635 15.4725 16.125Z" fill="#FEBA13"/>
</g>
<defs>
<clipPath id="clip0_0_1">
<rect width="24" height="24" fill="white"/>
</clipPath>
</defs>
</svg>
