<svg width="32" height="32" viewBox="0 0 32 32" fill="none" xmlns="http://www.w3.org/2000/svg">
<path d="M21.825 20.925C22.5313 21.1687 21.125 20.6812 21.825 20.925Z" fill="#FEBA13"/>
<path d="M21.825 20.925C20.9813 20.6313 20.0688 20.6125 19.225 20.3188C18.9688 20.2313 18.4625 20.125 18.3563 19.8313C18.2563 19.5438 18.2562 19.2063 18.2375 18.9063C18.225 18.6688 18.2188 18.4313 18.2188 18.1938C18.2188 18.0375 18.6187 17.7063 18.7062 17.5625C19.0437 17 19.075 16.2438 19.1375 15.6063C19.6813 15.7563 19.75 14.75 19.8438 14.4438C19.9125 14.2313 20.3312 12.7688 19.6812 12.9688C19.8375 12.6938 19.9 12.3563 19.9438 12.05C20.0688 11.25 20.1188 10.375 19.875 9.59375C19.3687 7.96875 17.8125 7.05625 16.1688 7.00625C14.5 6.95 12.825 7.75 12.2 9.36875C11.9 10.1563 11.925 11.0125 12.025 11.8375C12.0687 12.2125 12.1313 12.6313 12.3188 12.9688C11.7125 12.7875 12.0375 14.075 12.1062 14.3C12.2062 14.6188 12.2938 15.7625 12.8625 15.6063C12.9125 16.1125 12.9687 16.6313 13.1062 17.125C13.2 17.4563 13.3937 17.7375 13.6187 17.9938C13.7312 18.1188 13.7875 18.1313 13.7812 18.2938C13.775 18.7813 13.7875 19.3063 13.6625 19.7813C13.5375 20.2563 12.4937 20.4563 12.075 20.5438C10.95 20.775 9.9125 20.8813 8.975 21.5813C7.88125 22.3875 7.3125 23.6438 7.3125 25H24.6875C24.6875 23.1563 23.575 21.5313 21.825 20.925Z" fill="#FEBA13"/>
<path d="M8.95624 20.1563L9.05624 20.1063C9.03749 20.1125 9.01874 20.125 9.00624 20.1313C8.98749 20.1375 8.97499 20.1438 8.95624 20.1563Z" fill="#FEBA13"/>
<path d="M8.95625 20.1562C8.74375 20.2625 8.4875 20.3937 9.00625 20.1312L9.05625 20.1062C9.48125 19.9062 9.9375 19.8562 10.3938 19.8125C10.5688 19.7937 10.65 19.675 10.5188 19.5062C10.2688 19.1875 9.40625 19.125 9.04375 18.9812C8.81875 18.8937 8.75625 18.8125 8.7375 18.5625C8.73125 18.45 8.66875 17.95 8.75625 17.8687C8.81875 17.8062 9.2125 17.8312 9.3 17.8187C9.65625 17.775 10.0187 17.7 10.3562 17.5687C10.5 17.5125 10.6375 17.4437 10.7625 17.3562C10.9125 17.2437 10.65 16.9687 10.5813 16.8187C10.3688 16.35 10.275 15.8375 10.2437 15.325C10.1812 14.3187 10.3375 13.3062 10.15 12.3062C9.86875 10.775 8.6875 10.0062 7.18125 10.0062C6.25 10.0062 5.33125 10.325 4.8125 11.1375C4.2375 12.0312 4.26875 13.1437 4.3 14.1625C4.31875 14.7437 4.34375 15.3312 4.2625 15.9125C4.225 16.1625 4.16875 16.4062 4.08125 16.6437C4.0125 16.825 3.6625 17.275 3.8 17.3687C4.31875 17.7375 5.19375 17.8625 5.81875 17.8125C5.8375 18.1187 5.89375 18.5125 5.78125 18.8C5.60625 19.25 4.3 19.3687 3.90625 19.5C2.8125 19.8625 2 20.75 2 22H6.96875C7.05 22 7.3625 21.4187 7.45 21.325C7.875 20.8562 8.39375 20.45 8.95625 20.1562Z" fill="#FEBA13"/>
<path d="M28.0813 19.4937C27.575 19.3312 26.6 19.2812 26.2375 18.8437C26.0563 18.625 26.1563 18.0687 26.175 17.8062C26.45 17.8312 26.75 17.7875 27.0313 17.75C27.2875 17.7125 27.5375 17.6625 27.7813 17.575C27.8938 17.5312 28.0063 17.4875 28.1125 17.425C28.3563 17.2812 28.2438 17.2562 28.1188 17.0437C27.4375 15.9 27.7438 14.45 27.7125 13.1937C27.6875 12.15 27.4125 11.0062 26.4625 10.4187C25.6063 9.88748 24.3375 9.86873 23.4188 10.2437C20.7688 11.3062 22.3313 14.8187 21.425 16.8312C21.2688 17.1687 21.0438 17.2875 21.4375 17.4875C21.6563 17.6 21.8938 17.675 22.1313 17.7312C22.4938 17.8187 22.8688 17.8687 23.2438 17.8812C23.3063 17.8812 23.2625 18.6687 23.2438 18.75C23.175 19.0562 22.5063 19.1437 22.2563 19.2125C22 19.2812 21.575 19.3 21.45 19.5687C21.2625 19.9687 22.0688 19.8687 22.2688 19.9062C22.9125 20.025 23.4813 20.3812 23.9813 20.7875C24.3563 21.0937 24.8625 21.5062 25 22.0062H30.0125C30 20.75 29.1813 19.8562 28.0813 19.4937Z" fill="#FEBA13"/>
</svg>
