<svg width="24" height="24" viewBox="0 0 24 24" fill="none" xmlns="http://www.w3.org/2000/svg">
<path fill-rule="evenodd" clip-rule="evenodd" d="M6.1784 0.75H17.8216C18.2089 0.75 18.5248 1.06584 18.5248 1.45312V8.96245C18.5248 12.8742 15.7085 16.1488 12 16.8636C8.29158 16.1487 5.47532 12.8742 5.47532 8.96245V1.45312C5.47528 1.06584 5.79112 0.75 6.1784 0.75ZM19.6497 3.54131H22.3348C22.6454 3.54131 22.8973 3.79317 22.8973 4.10381C22.8973 4.11394 22.897 4.12397 22.8965 4.13395C22.9706 6.54305 22.9958 8.41148 22.3097 9.88059C21.7379 11.1051 20.7159 11.9925 18.9011 12.5823C19.0938 12.1362 19.2519 11.6727 19.3725 11.1957C20.3529 10.7417 20.9467 10.1509 21.2946 9.40598C21.8284 8.26317 21.846 6.68405 21.7906 4.66631H19.6498V3.54131H19.6497ZM4.35028 4.66631H2.20945C2.15414 6.68405 2.17172 8.26317 2.70548 9.40598C3.05343 10.1509 3.64715 10.7417 4.62764 11.1957C4.74806 11.6728 4.90631 12.1362 5.09901 12.5823C3.2842 11.9925 2.26218 11.1051 1.69031 9.88059C1.00415 8.41148 1.02947 6.54305 1.10358 4.134C1.10306 4.12402 1.10278 4.11394 1.10278 4.10386C1.10278 3.79322 1.35464 3.54136 1.66528 3.54136H4.35032L4.35028 4.66631ZM17.2321 21.6976C17.2443 21.6989 17.2566 21.7002 17.2688 21.7014C17.3889 21.7137 17.4794 21.8138 17.4794 21.9346V23.0156C17.4794 23.1447 17.3741 23.25 17.245 23.25H6.75497C6.62587 23.25 6.52059 23.1447 6.52059 23.0156V21.9346C6.52059 21.8139 6.61106 21.7137 6.73115 21.7014C6.74339 21.7002 6.75562 21.6989 6.76781 21.6976C8.90601 21.4735 10.5525 19.8047 10.7854 17.7157C11.1113 17.8177 11.4455 17.9024 11.787 17.9682L11.9999 18.0093L12.2129 17.9682C12.5545 17.9024 12.8887 17.8177 13.2145 17.7157C13.4475 19.8047 15.0939 21.4734 17.2321 21.6976ZM12.3568 4.48247C12.3016 4.32919 12.1629 4.23173 12 4.23173C11.8371 4.23173 11.6984 4.32923 11.6432 4.48247L10.9591 6.38259C10.938 6.44105 10.8862 6.47873 10.8241 6.48066L8.80556 6.54417C8.64276 6.54928 8.5072 6.65109 8.45686 6.80602C8.40651 6.96094 8.45634 7.12298 8.58506 7.22283L10.1808 8.46066C10.2299 8.49872 10.2497 8.55966 10.2323 8.61933L9.66895 10.5587C9.62353 10.7152 9.67842 10.8755 9.81023 10.9713C9.942 11.067 10.1115 11.0697 10.2463 10.9781L11.9166 9.843C11.968 9.80808 12.0321 9.80808 12.0835 9.843L13.7538 10.9781C13.8885 11.0697 14.0581 11.067 14.1899 10.9713C14.3216 10.8755 14.3766 10.7152 14.3311 10.5587L13.7677 8.61933C13.7504 8.55966 13.7702 8.49872 13.8193 8.46066L15.415 7.22283C15.5437 7.12298 15.5936 6.96094 15.5432 6.80602C15.4929 6.65109 15.3573 6.54928 15.1945 6.54417L13.176 6.48066C13.1138 6.47869 13.062 6.44105 13.041 6.38259L12.3568 4.48247Z" fill="#FEBA13"/>
</svg>
