<svg width="80" height="68" viewBox="0 0 80 68" fill="none" xmlns="http://www.w3.org/2000/svg">
<ellipse cx="40" cy="33.7143" rx="40" ry="33.7143" fill="#A60321"/>
<path d="M66.5035 14.8393C64.2383 14.9027 62.3351 16.5221 62.2528 18.4556C62.2029 19.6268 62.8333 20.6442 63.8409 21.2509L56.9843 30.1234C58.3393 30.7091 59.2284 31.922 59.1676 33.3492C59.0801 35.4044 57.0572 37.1255 54.6493 37.1929C52.2413 37.2604 50.3604 35.6489 50.4479 33.5934C50.5275 31.7241 52.2077 30.132 54.3223 29.8079L50.2511 21.0205C52.2259 20.5758 53.7489 19.0364 53.8251 17.2462C53.914 15.1593 52.0043 13.523 49.5596 13.5914C47.1149 13.6599 45.0612 15.4076 44.9723 17.4941C44.9034 19.1114 46.0356 20.4575 47.6864 20.9497L41.633 29.4066C43.4833 29.8487 44.7795 31.2998 44.7046 33.0596C44.6125 35.2229 42.483 37.0348 39.9483 37.1057C37.4135 37.1767 35.4335 35.4804 35.5256 33.3165C35.5962 31.6601 36.8613 30.211 38.5877 29.5902L33.2903 21.3669C35.0092 20.7904 36.2793 19.3668 36.3488 17.7356C36.4377 15.6487 34.528 14.0123 32.0834 14.0808C29.6387 14.1492 27.5849 15.8969 27.496 17.9835C27.4212 19.7412 28.7646 21.1793 30.6513 21.548L25.7454 30.6293C27.7638 30.8891 29.2396 32.3639 29.1619 34.1895C29.0743 36.2446 27.0515 37.9658 24.6435 38.0332C22.2355 38.1006 20.3546 36.4891 20.4421 34.4336C20.5044 32.9722 21.5454 31.6806 23.0071 31.0313L16.8693 22.5562C17.9218 21.8911 18.6331 20.8409 18.6827 19.6757C18.765 17.7419 16.9954 16.2257 14.7302 16.2891C12.465 16.3525 10.5618 17.9719 10.4795 19.9054C10.3971 21.8389 12.1668 23.3552 14.432 23.2918C14.527 23.2891 14.621 23.2828 14.7147 23.2748L19.3735 49.9327C15.8552 50.1101 15.6628 54.4221 19.2842 54.3207L20.136 54.2968L20.1421 54.3313L57.836 53.2757L57.845 53.2409L58.821 53.2135C62.3476 53.1148 62.5977 48.7205 59.0081 48.821L58.9822 48.8217L65.9249 21.8408C66.0177 21.8437 66.1108 21.8447 66.2052 21.842C68.4705 21.7786 70.3736 20.1597 70.4559 18.2259C70.5383 16.2921 68.7687 14.7759 66.5035 14.8393Z" fill="#FEBA13"/>
</svg>
