<svg width="242" height="63" viewBox="0 0 242 63" fill="none" xmlns="http://www.w3.org/2000/svg">
<path d="M7.83025 40.64C6.50758 40.64 5.24892 40.2773 4.05425 39.552C2.85958 38.784 1.96358 37.632 1.36625 36.096C1.15292 35.5413 1.00358 34.9653 0.91825 34.368C0.832917 33.728 0.79025 33.1093 0.79025 32.512C0.79025 31.9147 0.896917 31.616 1.11025 31.616C1.36625 31.616 1.49425 31.7867 1.49425 32.128C1.49425 34.1333 1.98492 35.648 2.96625 36.672C3.99025 37.696 5.24892 38.208 6.74225 38.208C8.23558 38.208 9.66492 37.7813 11.0303 36.928C12.4383 36.0747 13.7396 34.9867 14.9343 33.664C16.8969 31.5307 18.5609 29.376 19.9263 27.2C21.2916 24.9813 22.5289 22.72 23.6383 20.416C24.7903 18.0693 25.9423 15.6373 27.0943 13.12C27.8196 11.584 28.7156 10.24 29.7823 9.088C30.8916 7.936 32.2143 7.14666 33.7503 6.72L33.8143 6.656H30.2943C28.8009 6.656 27.2223 6.72 25.5583 6.848C23.8943 6.976 22.3796 7.25333 21.0143 7.68C19.6916 8.10667 18.7316 8.74666 18.1343 9.6C17.7503 10.1547 17.5583 10.7947 17.5583 11.52C17.5583 12.2453 17.7503 12.9493 18.1343 13.632C18.5183 14.3147 19.0089 14.8053 19.6063 15.104C19.6916 15.1893 19.7343 15.2533 19.7343 15.296C19.7343 15.3813 19.6276 15.488 19.4143 15.616C19.2436 15.7013 19.0516 15.7227 18.8383 15.68C18.4969 15.4667 18.0703 15.1253 17.5583 14.656C17.0463 14.144 16.5769 13.6107 16.1503 13.056C15.7663 12.5013 15.5103 12.032 15.3823 11.648C15.2116 11.136 15.1263 10.624 15.1263 10.112C15.1263 9.088 15.4889 8.256 16.2143 7.616C16.9823 6.976 17.9636 6.48533 19.1583 6.144C20.3529 5.80267 21.6329 5.568 22.9983 5.44C24.4063 5.26933 25.7503 5.184 27.0303 5.184C28.3529 5.14133 29.4836 5.12 30.4223 5.12H37.3343C37.4196 5.12 37.4623 5.14133 37.4623 5.184C37.4623 5.312 37.3129 5.504 37.0143 5.76C36.7583 5.97333 36.5876 6.08 36.5023 6.08C35.4356 6.29333 34.6463 6.86933 34.1343 7.808C33.6223 8.704 33.3876 10.1547 33.4303 12.16C33.4303 12.16 33.4303 12.6293 33.4303 13.568C33.4729 14.5067 33.5156 15.7227 33.5583 17.216C33.6009 18.7093 33.6436 20.3093 33.6863 22.016C33.7289 23.7227 33.7716 25.3653 33.8143 26.944C33.8569 28.5227 33.8996 29.8453 33.9423 30.912V31.296L56.1503 7.872C57.5583 6.37867 58.9449 5.12 60.3103 4.096C61.7183 3.02933 63.1689 2.56 64.6623 2.688C64.7049 2.688 64.7262 2.70933 64.7262 2.752C64.7689 2.752 64.7903 2.752 64.7903 2.752C64.7903 2.88 64.7049 3.02933 64.5343 3.2C64.3636 3.37066 64.1716 3.47733 63.9583 3.52C62.8489 3.47733 61.8463 3.904 60.9503 4.8C60.0543 5.696 59.2223 6.76266 58.4543 8C58.0703 8.64 57.4943 9.664 56.7263 11.072C55.9583 12.4373 55.0836 14.0587 54.1023 15.936C53.1636 17.8133 52.2036 19.7973 51.2223 21.888C50.2409 23.9787 49.3236 26.0267 48.4703 28.032C47.6596 30.0373 46.9983 31.872 46.4863 33.536C45.9743 35.1573 45.7183 36.48 45.7183 37.504C45.7183 38.6987 46.1236 39.296 46.9343 39.296C47.2756 39.296 47.6383 39.2107 48.0223 39.04C48.5769 38.8267 49.1956 38.5067 49.8783 38.08C50.5609 37.6533 51.1796 37.1627 51.7343 36.608C52.8436 35.5413 53.8249 34.4533 54.6783 33.344C55.5316 32.192 56.0436 31.5307 56.2143 31.36C56.3423 31.1893 56.4489 31.104 56.5343 31.104C56.7049 31.104 56.7903 31.232 56.7903 31.488C56.7903 31.744 56.7049 31.9787 56.5343 32.192C56.1929 32.6187 55.6169 33.3653 54.8063 34.432C53.9956 35.456 53.0356 36.5013 51.9263 37.568C50.8596 38.6347 49.7076 39.4453 48.4703 40C48.0863 40.1707 47.6809 40.2987 47.2543 40.384C46.8276 40.512 46.4009 40.576 45.9743 40.576C45.0356 40.576 44.1823 40.2987 43.4143 39.744C42.6889 39.1467 42.3263 38.1653 42.3263 36.8C42.3263 35.4773 42.6249 33.984 43.2223 32.32C43.8623 30.6133 44.5663 28.9707 45.3343 27.392C46.1449 25.7707 46.8063 24.4053 47.3183 23.296C47.8729 22.144 48.5769 20.672 49.4303 18.88C50.2836 17.088 51.2649 15.2747 52.3743 13.44L33.9423 32.896C33.8996 33.2373 33.7503 33.5787 33.4943 33.92C33.2383 34.2187 32.8329 34.4747 32.2783 34.688C31.9796 34.816 31.5743 35.1573 31.0623 35.712C30.5503 36.2667 30.2089 36.6507 30.0383 36.864C30.0383 36.9067 29.9743 36.928 29.8463 36.928C29.7183 36.928 29.5903 36.8853 29.4623 36.8C29.3343 36.7147 29.2916 36.6507 29.3343 36.608C30.4436 35.2 31.0196 33.2587 31.0623 30.784L31.1263 29.248C31.2116 27.456 31.2756 25.5787 31.3183 23.616C31.3609 21.6107 31.3823 19.7547 31.3823 18.048C31.4249 16.2987 31.4463 14.8907 31.4463 13.824C31.4463 12.7147 31.4463 12.16 31.4463 12.16C31.4463 11.136 31.5956 10.24 31.8943 9.472C32.1929 8.704 32.5556 8.04266 32.9823 7.488C32.2569 8.04266 31.5529 8.704 30.8703 9.472C30.1876 10.24 29.6116 11.0933 29.1423 12.032C28.5023 13.3547 27.7769 15.0613 26.9663 17.152C26.1556 19.2427 25.2169 21.4613 24.1503 23.808C23.1263 26.1547 21.9743 28.4587 20.6943 30.72C19.4569 32.9387 18.0703 34.8587 16.5343 36.48C15.4676 37.632 14.1023 38.6133 12.4383 39.424C10.8169 40.2347 9.28092 40.64 7.83025 40.64ZM64.4113 40.192C63.9846 40.192 63.6219 40.1067 63.3233 39.936C63.0246 39.7653 62.8753 39.4453 62.8753 38.976C62.8753 38.3787 63.0246 37.696 63.3233 36.928C63.6219 36.16 63.9633 35.4133 64.3473 34.688C64.7313 33.92 65.0726 33.3013 65.3713 32.832C63.8779 34.4107 62.3206 35.904 60.6993 37.312C59.8886 37.9947 58.9926 38.6347 58.0113 39.232C57.0299 39.8293 55.9846 40.128 54.8753 40.128C54.4486 40.128 54.1499 40 53.9793 39.744C53.8086 39.4453 53.7233 39.104 53.7233 38.72C53.7233 38.5067 53.7446 38.3573 53.7873 38.272C54.0006 36.608 54.5339 34.88 55.3873 33.088C56.2406 31.296 57.2859 29.6107 58.5233 28.032C59.7606 26.4533 61.0193 25.1733 62.2993 24.192C63.7499 23.0827 65.3499 22.528 67.0993 22.528H74.4593C74.6726 22.528 74.7793 22.6133 74.7793 22.784C74.7793 23.1253 74.5873 23.296 74.2033 23.296C73.7766 23.296 73.3499 23.5733 72.9233 24.128C72.4966 24.64 72.1766 25.0667 71.9633 25.408C71.6646 25.8773 71.1953 26.6667 70.5553 27.776C69.9153 28.8853 69.2539 30.1013 68.5713 31.424C67.9313 32.704 67.3766 33.8987 66.9073 35.008C66.4379 36.1173 66.2033 36.928 66.2033 37.44C66.2033 38.0373 66.5019 38.336 67.0993 38.336C67.7393 38.336 68.4646 38.0373 69.2753 37.44C70.0859 36.8427 70.8966 36.1173 71.7073 35.264C72.5606 34.368 73.3286 33.4933 74.0113 32.64C74.7366 31.744 75.3126 31.04 75.7393 30.528C75.9953 30.784 75.9739 31.1467 75.6753 31.616C75.4193 32.0427 75.1846 32.384 74.9713 32.64C74.1179 33.7493 73.1366 34.9013 72.0273 36.096C70.9179 37.248 69.7019 38.2293 68.3793 39.04C67.0993 39.808 65.7766 40.192 64.4113 40.192ZM57.4993 37.952C58.0113 37.952 58.7153 37.5893 59.6113 36.864C60.5499 36.096 61.5526 35.1573 62.6193 34.048C63.6859 32.896 64.6886 31.7013 65.6273 30.464C66.5659 29.184 67.3339 28.032 67.9313 27.008C68.5713 25.9413 68.8913 25.1307 68.8913 24.576C68.8913 24.1067 68.7419 23.7867 68.4433 23.616C68.1873 23.4453 67.8459 23.36 67.4193 23.36C66.7366 23.36 65.9899 23.616 65.1793 24.128C64.4113 24.5973 63.7926 25.0667 63.3233 25.536C62.8113 26.0053 62.1926 26.752 61.4673 27.776C60.7846 28.7573 60.1019 29.8453 59.4193 31.04C58.7366 32.2347 58.1606 33.3867 57.6913 34.496C57.2219 35.6053 56.9873 36.5013 56.9873 37.184C56.9873 37.696 57.1579 37.952 57.4993 37.952ZM74.9038 40.896C74.7331 40.896 74.7331 40.7253 74.9038 40.384C75.1171 40 75.3091 39.5733 75.4798 39.104C75.6931 38.6347 75.9064 38.1227 76.1198 37.568C76.5464 36.544 77.0158 35.392 77.5278 34.112C78.0398 32.832 78.5304 31.5947 78.9998 30.4C79.4691 29.1627 79.8744 28.1173 80.2158 27.264C80.5998 26.368 80.8558 25.792 80.9838 25.536C80.3864 26.176 79.6611 26.9867 78.8078 27.968C77.9971 28.9067 77.2291 29.824 76.5038 30.72C75.7784 31.616 75.2238 32.32 74.8398 32.832C74.7118 33.0027 74.6051 33.088 74.5198 33.088C74.4344 33.088 74.3918 32.9813 74.3918 32.768C74.3918 32.4267 74.4984 32.1067 74.7118 31.808C75.5224 30.784 76.4184 29.632 77.3998 28.352C78.4238 27.072 79.3411 25.8987 80.1518 24.832C80.9624 23.7227 81.4744 22.9973 81.6878 22.656C82.1571 22.5707 82.8398 22.4427 83.7358 22.272C84.6744 22.1013 85.3144 21.8667 85.6558 21.568C85.7838 21.44 85.9118 21.376 86.0398 21.376C86.1251 21.376 86.1678 21.4613 86.1678 21.632C86.2104 21.76 86.1678 21.9093 86.0398 22.08C85.7838 22.336 85.3998 22.8907 84.8878 23.744C84.4184 24.5973 83.8851 25.5787 83.2878 26.688C82.6904 27.7973 82.1144 28.864 81.5598 29.888C81.9864 29.248 82.5411 28.5013 83.2238 27.648C83.9491 26.752 84.7384 25.8987 85.5918 25.088C86.4451 24.2347 87.2984 23.5307 88.1518 22.976C89.0478 22.4213 89.8798 22.144 90.6478 22.144C91.2024 22.144 91.6718 22.272 92.0558 22.528C92.4398 22.7413 92.7384 23.1467 92.9518 23.744C93.0798 24.0427 93.1438 24.384 93.1438 24.768C93.1438 25.4933 92.9518 26.1973 92.5678 26.88C92.2264 27.52 91.9704 28.0107 91.7998 28.352C91.7571 28.48 91.6078 28.608 91.3518 28.736C91.0958 28.8213 90.9891 28.7787 91.0318 28.608C91.0744 28.3947 91.0958 28.1813 91.0958 27.968C91.1384 27.7547 91.1597 27.52 91.1597 27.264C91.1597 26.5387 91.0104 25.8773 90.7118 25.28C90.4558 24.6827 89.9651 24.384 89.2397 24.384C88.5571 24.384 87.7251 24.8107 86.7438 25.664C85.7624 26.5173 84.7811 27.4987 83.7998 28.608C82.5624 30.0587 81.5811 31.4453 80.8558 32.768C80.1304 34.048 79.5331 35.3067 79.0638 36.544C78.8078 37.2267 78.5518 37.9093 78.2958 38.592C78.0398 39.232 77.8478 39.744 77.7198 40.128C77.1651 40.1707 76.6104 40.2987 76.0558 40.512C75.5011 40.768 75.1171 40.896 74.9038 40.896ZM85.3652 62.4C83.7439 62.4 82.1866 62.016 80.6932 61.248C79.1572 60.5227 78.0266 59.392 77.3012 57.856C77.0452 57.3013 76.8746 56.704 76.7892 56.064C76.7039 55.4667 76.6612 54.8693 76.6612 54.272V53.568C76.6612 53.2267 76.7039 52.9067 76.7892 52.608C76.8746 52.352 77.0879 52.224 77.4292 52.224C77.5146 52.224 77.5572 52.2667 77.5572 52.352C77.5572 52.608 77.5359 52.864 77.4932 53.12C77.4506 53.376 77.4292 53.6533 77.4292 53.952C77.4292 55.9147 78.0692 57.408 79.3492 58.432C80.5866 59.456 82.1439 59.968 84.0212 59.968C84.7892 59.968 85.5786 59.8827 86.3892 59.712C87.1999 59.5413 87.9679 59.3067 88.6932 59.008C91.3813 57.856 93.7066 56.2133 95.6693 54.08C97.6746 51.9893 99.4239 49.6213 100.917 46.976C102.411 44.3307 103.755 41.6427 104.949 38.912C105.632 37.2907 106.229 35.712 106.741 34.176C107.296 32.64 107.787 31.2533 108.213 30.016C107.787 30.6133 107.232 31.3387 106.549 32.192C105.867 33.0453 105.184 33.8773 104.501 34.688C103.819 35.456 103.221 36.0747 102.709 36.544C101.643 37.568 100.491 38.4427 99.2533 39.168C98.0586 39.8507 96.8213 40.192 95.5413 40.192C95.1146 40.192 94.7519 40.1067 94.4533 39.936C94.1546 39.7653 94.0052 39.4453 94.0052 38.976C94.0052 38.3787 94.1546 37.6747 94.4533 36.864C94.7946 36.0533 95.1573 35.2427 95.5413 34.432C95.9253 33.6213 96.2453 32.96 96.5013 32.448C97.0133 31.4667 97.5039 30.4853 97.9733 29.504C98.4426 28.5227 98.8479 27.6907 99.1892 27.008C99.5306 26.368 99.7013 25.9413 99.7013 25.728C99.7013 25.3867 99.4453 25.3867 98.9333 25.728C98.4639 26.0693 98.0159 26.4107 97.5893 26.752C96.6506 27.648 95.6693 28.7147 94.6453 29.952C93.6213 31.1467 92.8319 32.1067 92.2773 32.832C92.1493 33.0027 92.0426 33.088 91.9573 33.088C91.8719 33.088 91.8293 32.9813 91.8293 32.768C91.8293 32.4267 91.9359 32.1067 92.1493 31.808C92.7466 30.9547 93.4506 30.016 94.2613 28.992C95.0719 27.968 95.9039 26.9867 96.7573 26.048C97.5679 25.1947 98.3999 24.3627 99.2533 23.552C100.107 22.7413 101.195 22.336 102.517 22.336C103.413 22.336 103.861 22.6773 103.861 23.36C103.861 23.9573 103.605 24.64 103.093 25.408C102.795 25.8773 102.325 26.6667 101.685 27.776C101.045 28.8853 100.384 30.1013 99.7013 31.424C99.0613 32.704 98.5066 33.8987 98.0373 35.008C97.5679 36.1173 97.3333 36.928 97.3333 37.44C97.3333 38.0373 97.6319 38.336 98.2292 38.336C98.6986 38.336 99.2746 38.1013 99.9573 37.632C100.64 37.12 101.344 36.5227 102.069 35.84C103.307 34.6453 104.437 33.3227 105.461 31.872C106.528 30.4213 107.445 29.0347 108.213 27.712C108.341 27.4987 108.555 27.1147 108.853 26.56C109.195 26.0053 109.536 25.472 109.877 24.96C110.261 24.448 110.56 24.1493 110.773 24.064C110.987 23.9787 111.413 23.744 112.053 23.36C112.693 22.976 113.333 22.72 113.973 22.592C114.571 22.464 115.019 22.4 115.317 22.4C115.787 22.4 116.021 22.528 116.021 22.784C116.021 23.1253 115.829 23.296 115.445 23.296C114.976 23.296 114.549 23.424 114.165 23.68C113.781 23.8933 113.483 24.1707 113.269 24.512C112.885 25.0667 112.331 26.0693 111.605 27.52C110.923 28.9707 110.155 30.656 109.301 32.576C108.491 34.4533 107.68 36.3733 106.869 38.336C106.059 40.256 105.312 42.0267 104.629 43.648C103.605 46.08 102.432 48.448 101.109 50.752C99.7866 53.0987 98.2293 55.1893 96.4373 57.024C94.6879 58.9013 92.5973 60.3733 90.1653 61.44C88.7146 62.08 87.1146 62.4 85.3652 62.4ZM123.298 41.216C122.999 41.216 122.764 41.1307 122.594 40.96C122.423 40.832 122.423 40.7253 122.594 40.64C123.532 40.4693 124.343 40.128 125.026 39.616C125.708 39.0613 126.263 38.3787 126.69 37.568C127.586 36.0747 128.46 34.5813 129.314 33.088C130.167 31.552 130.999 30.016 131.81 28.48L137.954 17.152C138.935 15.4027 139.788 13.7173 140.514 12.096C141.282 10.4747 141.879 9.30133 142.306 8.576C142.604 8.02133 143.116 7.53067 143.842 7.104C144.61 6.63467 145.356 6.272 146.082 6.016C145.826 6.016 145.57 6.016 145.314 6.016C145.058 5.97333 144.78 5.952 144.482 5.952C143.159 5.952 141.708 6.03733 140.13 6.208C138.594 6.336 137.079 6.54933 135.586 6.848C134.135 7.14666 132.855 7.552 131.746 8.064C130.636 8.576 129.89 9.19467 129.506 9.92C129.335 10.304 129.186 10.688 129.058 11.072C128.93 11.456 128.866 11.84 128.866 12.224C128.866 13.2053 129.207 13.9093 129.89 14.336C129.932 14.336 129.954 14.3787 129.954 14.464C129.954 14.5493 129.868 14.6347 129.698 14.72C129.57 14.8053 129.442 14.8267 129.314 14.784C128.93 14.5707 128.46 14.0587 127.906 13.248C127.351 12.3947 127.01 11.6907 126.882 11.136C126.754 10.624 126.69 10.1547 126.69 9.728C126.69 8.61867 127.052 7.76533 127.778 7.168C128.503 6.528 129.42 6.08 130.53 5.824C131.639 5.52533 132.77 5.35467 133.922 5.312C135.116 5.22666 136.162 5.184 137.058 5.184C138.423 5.184 140.044 5.184 141.922 5.184C143.799 5.14133 145.527 5.12 147.106 5.12C147.49 5.12 147.916 5.12 148.386 5.12C148.855 5.07733 149.346 5.056 149.858 5.056C151.01 5.056 152.204 5.12 153.442 5.248C154.679 5.376 155.81 5.65333 156.834 6.08C157.858 6.50666 158.647 7.168 159.202 8.064C159.756 9.00267 160.034 10.0267 160.034 11.136C160.034 12.2027 159.82 13.2693 159.394 14.336C158.967 15.4027 158.455 16.32 157.858 17.088C157.474 17.5573 157.026 18.0267 156.514 18.496C156.002 18.9653 155.426 19.4133 154.786 19.84C154.146 20.2667 153.442 20.672 152.674 21.056C151.948 21.3973 151.074 21.6747 150.05 21.888C150.007 21.888 149.964 21.952 149.922 22.08C149.922 22.208 149.964 22.272 150.05 22.272C150.263 22.3147 150.626 22.3787 151.138 22.464C151.692 22.5067 152.183 22.5707 152.61 22.656C154.103 22.9547 155.34 23.5947 156.322 24.576C157.346 25.5147 157.858 26.7947 157.858 28.416C157.858 30.2507 157.367 31.936 156.386 33.472C155.447 35.008 154.231 36.3307 152.738 37.44C151.244 38.5067 149.687 39.3387 148.066 39.936C146.018 40.704 143.671 41.088 141.026 41.088C139.447 41.088 137.804 40.9387 136.098 40.64C134.391 40.3413 132.834 39.8293 131.426 39.104C131.127 38.9333 130.828 38.8053 130.53 38.72C130.231 38.592 129.911 38.528 129.57 38.528C128.972 38.528 128.332 38.6987 127.65 39.04C127.223 39.2107 126.668 39.5307 125.986 40C125.303 40.4693 124.535 40.8533 123.682 41.152C123.596 41.1947 123.468 41.216 123.298 41.216ZM138.978 40.192C140.087 40.192 141.196 40.0853 142.306 39.872C143.415 39.616 144.418 39.3173 145.314 38.976C146.892 38.3787 148.343 37.5467 149.666 36.48C150.988 35.3707 152.055 34.0693 152.866 32.576C153.719 31.04 154.146 29.3333 154.146 27.456C154.146 26.2187 153.826 25.28 153.186 24.64C152.546 23.9573 151.735 23.488 150.754 23.232C149.772 22.976 148.748 22.848 147.682 22.848C146.871 22.848 146.103 22.8907 145.378 22.976C144.652 23.0613 143.991 23.168 143.394 23.296C142.199 23.5093 141.132 23.744 140.194 24C140.023 23.9147 140.044 23.7653 140.258 23.552C140.471 23.296 140.748 23.0187 141.09 22.72C141.474 22.4213 141.772 22.1867 141.986 22.016C142.071 21.9307 142.242 21.8027 142.498 21.632C142.796 21.4187 143.031 21.312 143.202 21.312C145.292 21.312 147.148 21.184 148.77 20.928C150.434 20.672 151.863 20.0533 153.058 19.072C154.252 18.048 155.234 16.4693 156.002 14.336C156.386 13.2267 156.578 12.1387 156.578 11.072C156.578 9.83466 156.279 8.768 155.682 7.872C155.084 6.93333 154.124 6.37866 152.802 6.208C152.631 6.16533 152.439 6.144 152.226 6.144C152.012 6.144 151.799 6.144 151.586 6.144C150.775 6.144 149.879 6.25066 148.898 6.464C147.959 6.67733 147.255 7.08266 146.786 7.68C145.719 9.088 144.695 10.688 143.714 12.48C142.732 14.2293 141.794 16.0213 140.898 17.856C140.002 19.648 139.148 21.3333 138.338 22.912C137.356 24.832 136.354 26.7733 135.33 28.736C134.306 30.6987 133.303 32.6827 132.322 34.688C132.066 35.2 131.938 35.6907 131.938 36.16C131.938 37.0133 132.471 37.8453 133.538 38.656C134.263 39.2107 135.095 39.616 136.034 39.872C137.015 40.0853 137.996 40.192 138.978 40.192ZM164.291 40.192C163.865 40.192 163.502 40.1067 163.203 39.936C162.905 39.7653 162.755 39.4453 162.755 38.976C162.755 38.3787 162.905 37.6747 163.203 36.864C163.545 36.0533 163.907 35.2427 164.291 34.432C164.675 33.6213 164.995 32.96 165.251 32.448C165.763 31.4667 166.254 30.4853 166.723 29.504C167.193 28.5227 167.598 27.6907 167.939 27.008C168.281 26.368 168.451 25.9413 168.451 25.728C168.451 25.3867 168.195 25.3867 167.683 25.728C167.214 26.0693 166.766 26.4107 166.339 26.752C165.401 27.648 164.419 28.7147 163.395 29.952C162.371 31.1467 161.582 32.1067 161.027 32.832C160.899 33.0027 160.793 33.088 160.707 33.088C160.622 33.088 160.579 32.9813 160.579 32.768C160.579 32.4267 160.686 32.1067 160.899 31.808C161.497 30.9547 162.201 30.016 163.011 28.992C163.822 27.968 164.654 26.9867 165.507 26.048C166.318 25.1947 167.15 24.3627 168.003 23.552C168.857 22.7413 169.945 22.336 171.267 22.336C172.163 22.336 172.611 22.6773 172.611 23.36C172.611 23.9573 172.355 24.64 171.843 25.408C171.545 25.8773 171.075 26.6667 170.435 27.776C169.795 28.8853 169.134 30.1013 168.451 31.424C167.811 32.704 167.257 33.8987 166.787 35.008C166.318 36.1173 166.083 36.928 166.083 37.44C166.083 38.0373 166.382 38.336 166.979 38.336C167.449 38.336 168.025 38.1013 168.707 37.632C169.39 37.12 170.094 36.5227 170.819 35.84C172.142 34.56 173.337 33.1733 174.403 31.68C175.513 30.144 176.451 28.672 177.219 27.264C178.03 25.856 178.67 24.704 179.139 23.808C179.225 23.6373 179.31 23.4453 179.395 23.232C179.523 22.976 179.715 22.8267 179.971 22.784C180.227 22.7413 180.782 22.72 181.635 22.72C182.489 22.72 183.278 22.5493 184.003 22.208H184.131C184.259 22.208 184.323 22.272 184.323 22.4C184.323 22.7413 184.046 22.9973 183.491 23.168C182.979 23.3387 182.382 23.8507 181.699 24.704C181.059 25.5573 180.419 26.6027 179.779 27.84C179.139 29.0347 178.563 30.272 178.051 31.552C177.539 32.832 177.155 34.0053 176.899 35.072C176.643 36.1387 176.579 36.928 176.707 37.44C176.878 38.0373 177.177 38.336 177.603 38.336C178.158 38.336 178.926 37.9947 179.907 37.312C180.931 36.6293 181.977 35.8187 183.043 34.88C184.11 33.8987 184.985 33.0027 185.667 32.192C185.966 31.8507 186.243 31.5093 186.499 31.168C186.755 30.8267 186.926 30.6133 187.011 30.528C187.054 30.5707 187.097 30.656 187.139 30.784C187.182 30.8693 187.203 30.9547 187.203 31.04C187.161 31.3387 187.054 31.6373 186.883 31.936C186.713 32.192 186.521 32.4267 186.307 32.64C185.497 33.7067 184.515 34.8373 183.363 36.032C182.254 37.184 181.038 38.1653 179.715 38.976C178.435 39.7867 177.113 40.192 175.747 40.192C175.321 40.192 174.83 40.0853 174.275 39.872C173.763 39.6587 173.507 39.1893 173.507 38.464C173.507 37.9093 173.657 37.1627 173.955 36.224C174.254 35.2427 174.574 34.2827 174.915 33.344C175.299 32.3627 175.619 31.6373 175.875 31.168C175.321 31.9787 174.638 32.896 173.827 33.92C173.059 34.9013 172.27 35.776 171.459 36.544C170.393 37.568 169.241 38.4427 168.003 39.168C166.809 39.8507 165.571 40.192 164.291 40.192ZM170.984 54.464C169.32 54.464 167.934 54.1867 166.824 53.632C165.672 53.12 164.904 52.3307 164.52 51.264C164.478 51.136 164.456 51.008 164.456 50.88C164.414 50.752 164.392 50.6027 164.392 50.432C164.392 49.792 164.542 49.0667 164.84 48.256C165.139 47.488 165.459 46.656 165.8 45.76C165.928 45.504 166.078 45.376 166.248 45.376C166.547 45.376 166.632 45.5893 166.504 46.016C166.206 46.656 166.056 47.3387 166.056 48.064C166.056 49.5147 166.696 50.6667 167.976 51.52C169.256 52.3733 170.707 52.8 172.328 52.8C172.968 52.8 173.63 52.7147 174.312 52.544C174.952 52.416 175.571 52.2027 176.168 51.904C178.174 50.88 179.816 49.5147 181.096 47.808C182.376 46.1013 183.507 44.3307 184.488 42.496C185.982 39.6373 187.262 36.6507 188.328 33.536C189.438 30.3787 190.611 27.264 191.848 24.192C190.91 24.192 190.248 24.2133 189.864 24.256C189.48 24.2987 189.182 24.3413 188.968 24.384L188.84 24.32C188.926 23.8507 189.331 23.4453 190.056 23.104C190.824 22.72 191.422 22.528 191.848 22.528H192.616C193.086 21.376 193.704 20.0107 194.472 18.432C195.283 16.8533 196.094 15.296 196.904 13.76C197.758 12.1813 198.504 10.8587 199.144 9.792C200.936 6.848 203.006 4.71467 205.352 3.392C207.699 2.02666 210.174 1.344 212.776 1.344C213.288 1.344 213.779 1.51466 214.248 1.856C214.76 2.15466 214.995 2.624 214.952 3.264L214.824 4.672C217.47 2.15467 220.456 0.896 223.784 0.896C224.296 0.896 224.787 1.06667 225.256 1.408C225.768 1.70667 226.003 2.176 225.96 2.816L225.768 5.12C225.768 5.248 225.662 5.312 225.448 5.312C225.363 5.312 225.32 5.29066 225.32 5.248C225.192 4.48 224.787 3.88266 224.104 3.456C223.464 3.02933 222.696 2.816 221.8 2.816C221.16 2.816 220.478 2.944 219.752 3.2C218.558 3.584 217.406 4.288 216.296 5.312C215.23 6.29333 214.078 7.85066 212.84 9.984C212.243 11.0507 211.624 12.3093 210.984 13.76C210.344 15.2107 209.704 16.704 209.064 18.24C208.424 19.776 207.806 21.2053 207.208 22.528H211.816C212.115 22.528 212.414 22.528 212.712 22.528C213.054 22.4853 213.374 22.4427 213.672 22.4C213.672 22.8267 213.352 23.168 212.712 23.424C212.115 23.6373 211.368 23.808 210.472 23.936C209.619 24.0213 208.808 24.0853 208.04 24.128C207.272 24.1707 206.76 24.192 206.504 24.192C205.566 26.5387 204.67 28.7787 203.816 30.912C203.006 33.0027 202.11 35.0507 201.128 37.056C200.318 38.848 199.315 40.7467 198.12 42.752C196.926 44.7573 195.56 46.656 194.024 48.448C192.488 50.24 190.76 51.6907 188.84 52.8C186.963 53.9093 184.894 54.464 182.632 54.464C180.115 54.464 178.28 53.888 177.128 52.736C176.19 53.2907 175.208 53.7173 174.184 54.016C173.16 54.3147 172.094 54.464 170.984 54.464ZM201.192 9.984C200.638 11.008 200.019 12.2667 199.336 13.76C198.696 15.2107 198.035 16.704 197.352 18.24C196.712 19.776 196.115 21.2053 195.56 22.528H204.264C204.734 21.376 205.352 20.0107 206.12 18.432C206.931 16.8533 207.742 15.296 208.552 13.76C209.406 12.1813 210.152 10.8587 210.792 9.792C211.902 8 213.054 6.464 214.248 5.184C214.12 4.416 213.651 3.81866 212.84 3.392C212.072 2.92267 211.198 2.688 210.216 2.688C209.32 2.688 208.51 2.83733 207.784 3.136C206.632 3.60533 205.544 4.33067 204.52 5.312C203.539 6.29333 202.43 7.85066 201.192 9.984ZM183.912 52.8C185.32 52.8 186.622 52.5013 187.816 51.904C189.822 50.88 191.464 49.5147 192.744 47.808C194.024 46.1013 195.155 44.3307 196.136 42.496C197.63 39.6373 198.91 36.6507 199.976 33.536C201.086 30.3787 202.259 27.264 203.496 24.192H194.92C194.024 26.4533 193.128 28.672 192.232 30.848C191.336 33.024 190.419 35.0933 189.48 37.056C188.755 38.592 187.88 40.2347 186.856 41.984C185.875 43.776 184.766 45.4827 183.528 47.104C182.291 48.7253 180.904 50.1333 179.368 51.328C180.563 52.3093 182.078 52.8 183.912 52.8ZM212.793 40.512C211.043 40.512 209.827 40.1707 209.145 39.488C208.462 38.8053 208.121 37.9733 208.121 36.992C208.121 35.7547 208.441 34.432 209.081 33.024C209.763 31.616 210.403 30.4213 211.001 29.44C211.683 28.416 212.601 27.3493 213.753 26.24C214.905 25.1307 216.163 24.192 217.529 23.424C218.894 22.656 220.217 22.272 221.497 22.272C222.606 22.272 223.374 22.5493 223.801 23.104C224.227 23.616 224.441 24.2347 224.441 24.96C224.441 26.2827 224.035 27.3707 223.225 28.224C222.457 29.0773 221.497 29.7813 220.345 30.336C219.193 30.848 218.083 31.2747 217.017 31.616C216.377 31.7867 215.63 31.9573 214.777 32.128C213.923 32.2987 213.113 32.384 212.345 32.384C212.046 33.152 211.811 33.8987 211.641 34.624C211.47 35.3493 211.385 36.0107 211.385 36.608C211.385 37.3333 211.555 37.9307 211.897 38.4C212.281 38.8693 212.899 39.104 213.753 39.104C214.094 39.104 214.499 39.0613 214.969 38.976C215.438 38.8907 215.95 38.7627 216.505 38.592C217.785 38.1653 219.043 37.4827 220.281 36.544C221.518 35.6053 222.649 34.6027 223.673 33.536C224.739 32.4267 225.55 31.5093 226.105 30.784C226.233 30.912 226.297 31.0613 226.297 31.232C226.297 31.4453 226.147 31.7867 225.849 32.256C224.995 33.4507 223.886 34.688 222.521 35.968C221.155 37.248 219.641 38.336 217.977 39.232C216.313 40.0853 214.585 40.512 212.793 40.512ZM212.857 31.104C213.411 31.1467 214.03 31.1467 214.713 31.104C215.438 31.0187 216.142 30.8693 216.825 30.656C218.574 30.144 219.833 29.3333 220.601 28.224C221.411 27.072 221.817 26.048 221.817 25.152C221.817 24.64 221.71 24.2133 221.497 23.872C221.283 23.5307 220.942 23.36 220.473 23.36C219.235 23.36 218.126 23.8293 217.145 24.768C216.163 25.664 215.31 26.7093 214.585 27.904C213.859 29.0987 213.283 30.1653 212.857 31.104ZM227.642 40.192C227.216 40.192 226.853 40.1067 226.554 39.936C226.256 39.7653 226.106 39.4453 226.106 38.976C226.106 38.3787 226.256 37.6747 226.554 36.864C226.896 36.0533 227.258 35.2427 227.642 34.432C228.026 33.6213 228.346 32.96 228.602 32.448C228.816 32.064 229.093 31.4667 229.434 30.656C229.818 29.8027 230.202 28.928 230.586 28.032C231.013 27.0933 231.354 26.304 231.61 25.664C231.909 25.024 232.058 24.704 232.058 24.704C231.674 25.1307 231.162 25.728 230.522 26.496C229.925 27.264 229.264 28.0747 228.538 28.928C227.856 29.7387 227.216 30.5067 226.618 31.232C226.064 31.9573 225.658 32.4907 225.402 32.832C225.274 33.0027 225.168 33.088 225.082 33.088C224.997 33.088 224.954 32.9813 224.954 32.768C224.954 32.4267 225.061 32.1067 225.274 31.808C225.786 31.168 226.405 30.4 227.13 29.504C227.856 28.5653 228.581 27.6267 229.306 26.688C230.074 25.7493 230.736 24.9173 231.29 24.192C230.949 24.192 230.501 24.2133 229.946 24.256C229.434 24.2987 228.965 24.3627 228.538 24.448C228.112 24.4907 227.877 24.512 227.834 24.512C227.621 24.512 227.642 24.3413 227.898 24C228.154 23.6587 228.496 23.3173 228.922 22.976C229.349 22.6347 229.669 22.464 229.882 22.464C229.925 22.464 230.266 22.4853 230.906 22.528C231.546 22.528 232.016 22.528 232.314 22.528C233.168 21.376 234 20.0533 234.81 18.56C235.664 17.0667 236.496 15.424 237.306 13.632C237.648 13.5893 238.224 13.3547 239.034 12.928C239.888 12.4587 240.549 11.9893 241.018 11.52C241.232 11.3067 241.402 11.2 241.53 11.2C241.786 11.2 241.786 11.3707 241.53 11.712C241.232 12.0533 240.72 12.7787 239.994 13.888C239.269 14.9547 238.458 16.256 237.562 17.792C236.666 19.2853 235.813 20.864 235.002 22.528H240.186C240.656 22.528 240.89 22.592 240.89 22.72C240.89 22.8907 240.57 23.0613 239.93 23.232C239.205 23.4453 238.437 23.5733 237.626 23.616C236.858 23.6587 236.133 23.744 235.45 23.872C234.81 24 234.341 24.2773 234.042 24.704C233.786 25.0027 233.424 25.6427 232.954 26.624C232.485 27.6053 231.973 28.736 231.418 30.016C230.906 31.2533 230.458 32.512 230.074 33.792C229.69 35.0293 229.456 36.0747 229.37 36.928V37.184C229.37 37.5253 229.477 37.8027 229.69 38.016C229.904 38.2293 230.117 38.336 230.33 38.336C230.885 38.336 231.589 37.9947 232.442 37.312C233.338 36.6293 234.256 35.8187 235.194 34.88C236.133 33.8987 236.944 33.0027 237.626 32.192C237.925 31.8507 238.181 31.5307 238.394 31.232C238.65 30.9333 238.8 30.7413 238.842 30.656C238.928 30.8267 238.97 30.9547 238.97 31.04C238.97 31.296 238.885 31.5733 238.714 31.872C238.586 32.1707 238.437 32.4267 238.266 32.64C237.456 33.7067 236.474 34.8373 235.322 36.032C234.17 37.184 232.933 38.1653 231.61 38.976C230.33 39.7867 229.008 40.192 227.642 40.192Z" fill="#FEBA13"/>
</svg>
